<svg width="57" height="20" viewBox="0 0 57 20" fill="none" xmlns="http://www.w3.org/2000/svg">
<path d="M27.75 10C27.75 12.558 26.2993 14.9211 23.8589 16.6642C21.4195 18.4066 18.0238 19.5 14.25 19.5C10.4762 19.5 7.08055 18.4066 4.64112 16.6642C2.20074 14.9211 0.75 12.558 0.75 10C0.75 7.44196 2.20074 5.07893 4.64112 3.3358C7.08055 1.59335 10.4762 0.5 14.25 0.5C18.0238 0.5 21.4195 1.59335 23.8589 3.3358C26.2993 5.07893 27.75 7.44196 27.75 10Z" stroke="white"/>
<path d="M8.25 15V4H9.74715L14.5647 13.0588H14.624C14.6141 12.7918 14.5993 12.4837 14.5795 12.1345C14.5598 11.7852 14.5449 11.436 14.5351 11.0868C14.5252 10.7274 14.5202 10.4192 14.5202 10.1625V4H15.6913V15H14.2386L9.36174 5.91036H9.30245C9.32222 6.1774 9.33704 6.4958 9.34692 6.86555C9.36669 7.22502 9.38151 7.5845 9.39139 7.94398C9.41116 8.30345 9.42104 8.62185 9.42104 8.89916V15H8.25ZM17.0995 15V13.937H20.9091V15H17.0995ZM18.9969 12.9356C18.5719 12.9356 18.1915 12.838 17.8555 12.6429C17.5294 12.4374 17.2724 12.1396 17.0847 11.7493C16.8969 11.359 16.803 10.8814 16.803 10.3165C16.803 9.47432 17.0007 8.8324 17.396 8.39076C17.8011 7.93884 18.3496 7.71289 19.0413 7.71289C19.4663 7.71289 19.8418 7.81559 20.1679 8.02101C20.5039 8.21615 20.7658 8.50887 20.9535 8.89916C21.1512 9.27918 21.25 9.75163 21.25 10.3165C21.25 11.1587 21.0474 11.8058 20.6422 12.2577C20.2371 12.7096 19.6886 12.9356 18.9969 12.9356ZM19.0265 12.042C19.4613 12.042 19.7726 11.8982 19.9604 11.6106C20.1481 11.3128 20.242 10.8814 20.242 10.3165C20.242 9.74136 20.1481 9.32026 19.9604 9.05322C19.7726 8.77591 19.4613 8.63726 19.0265 8.63726C18.6016 8.63726 18.2903 8.77591 18.0926 9.05322C17.895 9.32026 17.7962 9.74136 17.7962 10.3165C17.7962 10.8814 17.8901 11.3128 18.0778 11.6106C18.2755 11.8982 18.5917 12.042 19.0265 12.042Z" fill="white"/>
<ellipse cx="42.25" cy="10" rx="14" ry="10" fill="white"/>
<path d="M46.5122 4.25293H48.0933V15.9999H46.1213V7.48293C45.4243 8.16293 44.6423 8.16293 43.6562 8.16293V6.75193C45.7812 6.75193 46.3932 5.69793 46.5122 4.25293Z" fill="black"/>
<path d="M37.976 16.255C34.661 16.255 33.25 13.467 33.25 10.135C33.25 6.80305 34.661 3.99805 37.976 3.99805C41.291 3.99805 42.702 6.80305 42.702 10.135C42.702 13.467 41.291 16.255 37.976 16.255ZM37.976 14.572C40.05 14.572 40.73 12.583 40.73 10.135C40.73 7.68705 40.05 5.68105 37.976 5.68105C35.902 5.68105 35.205 7.68705 35.205 10.135C35.205 12.583 35.902 14.572 37.976 14.572Z" fill="black"/>
</svg>
