<svg width="57" height="20" viewBox="0 0 57 20" fill="none" xmlns="http://www.w3.org/2000/svg">
<path d="M28 10C28 12.558 26.5493 14.9211 24.1089 16.6642C21.6695 18.4066 18.2738 19.5 14.5 19.5C10.7262 19.5 7.33055 18.4066 4.89112 16.6642C2.45074 14.9211 1 12.558 1 10C1 7.44196 2.45074 5.07893 4.89112 3.3358C7.33055 1.59335 10.7262 0.5 14.5 0.5C18.2738 0.5 21.6695 1.59335 24.1089 3.3358C26.5493 5.07893 28 7.44196 28 10Z" stroke="white"/>
<path d="M8.5 15V4H9.99715L14.8147 13.0588H14.874C14.8641 12.7918 14.8493 12.4837 14.8295 12.1345C14.8098 11.7852 14.7949 11.436 14.7851 11.0868C14.7752 10.7274 14.7702 10.4192 14.7702 10.1625V4H15.9413V15H14.4886L9.61174 5.91036H9.55245C9.57222 6.1774 9.58704 6.4958 9.59692 6.86555C9.61669 7.22502 9.63151 7.5845 9.64139 7.94398C9.66116 8.30345 9.67104 8.62185 9.67104 8.89916V15H8.5ZM17.3495 15V13.937H21.1591V15H17.3495ZM19.2469 12.9356C18.8219 12.9356 18.4415 12.838 18.1055 12.6429C17.7794 12.4374 17.5224 12.1396 17.3347 11.7493C17.1469 11.359 17.053 10.8814 17.053 10.3165C17.053 9.47432 17.2507 8.8324 17.646 8.39076C18.0511 7.93884 18.5996 7.71289 19.2913 7.71289C19.7163 7.71289 20.0918 7.81559 20.4179 8.02101C20.7539 8.21615 21.0158 8.50887 21.2035 8.89916C21.4012 9.27918 21.5 9.75163 21.5 10.3165C21.5 11.1587 21.2974 11.8058 20.8922 12.2577C20.4871 12.7096 19.9386 12.9356 19.2469 12.9356ZM19.2765 12.042C19.7113 12.042 20.0226 11.8982 20.2104 11.6106C20.3981 11.3128 20.492 10.8814 20.492 10.3165C20.492 9.74136 20.3981 9.32026 20.2104 9.05322C20.0226 8.77591 19.7113 8.63726 19.2765 8.63726C18.8516 8.63726 18.5403 8.77591 18.3426 9.05322C18.145 9.32026 18.0462 9.74136 18.0462 10.3165C18.0462 10.8814 18.1401 11.3128 18.3278 11.6106C18.5255 11.8982 18.8417 12.042 19.2765 12.042Z" fill="white"/>
<ellipse cx="42.5" cy="10" rx="14" ry="10" fill="white"/>
<path d="M46.1305 8.41805H44.2265C44.2265 5.88505 45.5865 3.99805 48.5955 3.99805C50.7715 3.99805 52.4885 5.29005 52.4885 7.53405C52.4885 11.274 47.4735 11.903 46.5045 14.3V14.334H52.3695V16H43.9375C43.9375 13.926 45.1785 12.413 46.9805 11.274C49.1395 9.84605 50.5165 9.28505 50.5165 7.61905C50.5165 6.65005 50.0575 5.68105 48.5445 5.68105C46.7935 5.68105 46.1305 6.80305 46.1305 8.41805Z" fill="black"/>
<path d="M38.226 16.255C34.911 16.255 33.5 13.467 33.5 10.135C33.5 6.80305 34.911 3.99805 38.226 3.99805C41.541 3.99805 42.952 6.80305 42.952 10.135C42.952 13.467 41.541 16.255 38.226 16.255ZM38.226 14.572C40.3 14.572 40.98 12.583 40.98 10.135C40.98 7.68705 40.3 5.68105 38.226 5.68105C36.152 5.68105 35.455 7.68705 35.455 10.135C35.455 12.583 36.152 14.572 38.226 14.572Z" fill="black"/>
</svg>
