<svg width="57" height="20" viewBox="0 0 57 20" fill="none" xmlns="http://www.w3.org/2000/svg">
<path d="M28.25 10C28.25 12.558 26.7993 14.9211 24.3589 16.6642C21.9195 18.4066 18.5238 19.5 14.75 19.5C10.9762 19.5 7.58055 18.4066 5.14112 16.6642C2.70074 14.9211 1.25 12.558 1.25 10C1.25 7.44196 2.70074 5.07893 5.14112 3.3358C7.58055 1.59335 10.9762 0.5 14.75 0.5C18.5238 0.5 21.9195 1.59335 24.3589 3.3358C26.7993 5.07893 28.25 7.44196 28.25 10Z" stroke="white"/>
<path d="M8.75 15V4H10.2471L15.0647 13.0588H15.124C15.1141 12.7918 15.0993 12.4837 15.0795 12.1345C15.0598 11.7852 15.0449 11.436 15.0351 11.0868C15.0252 10.7274 15.0202 10.4192 15.0202 10.1625V4H16.1913V15H14.7386L9.86174 5.91036H9.80245C9.82222 6.1774 9.83704 6.4958 9.84692 6.86555C9.86669 7.22502 9.88151 7.5845 9.89139 7.94398C9.91116 8.30345 9.92104 8.62185 9.92104 8.89916V15H8.75ZM17.5995 15V13.937H21.4091V15H17.5995ZM19.4969 12.9356C19.0719 12.9356 18.6915 12.838 18.3555 12.6429C18.0294 12.4374 17.7724 12.1396 17.5847 11.7493C17.3969 11.359 17.303 10.8814 17.303 10.3165C17.303 9.47432 17.5007 8.8324 17.896 8.39076C18.3011 7.93884 18.8496 7.71289 19.5413 7.71289C19.9663 7.71289 20.3418 7.81559 20.6679 8.02101C21.0039 8.21615 21.2658 8.50887 21.4535 8.89916C21.6512 9.27918 21.75 9.75163 21.75 10.3165C21.75 11.1587 21.5474 11.8058 21.1422 12.2577C20.7371 12.7096 20.1886 12.9356 19.4969 12.9356ZM19.5265 12.042C19.9613 12.042 20.2726 11.8982 20.4604 11.6106C20.6481 11.3128 20.742 10.8814 20.742 10.3165C20.742 9.74136 20.6481 9.32026 20.4604 9.05322C20.2726 8.77591 19.9613 8.63726 19.5265 8.63726C19.1016 8.63726 18.7903 8.77591 18.5926 9.05322C18.395 9.32026 18.2962 9.74136 18.2962 10.3165C18.2962 10.8814 18.3901 11.3128 18.5778 11.6106C18.7755 11.8982 19.0917 12.042 19.5265 12.042Z" fill="white"/>
<ellipse cx="42.75" cy="10" rx="14" ry="10" fill="white"/>
<path d="M45.3442 7.80605H43.4232C43.4232 5.61305 44.9192 3.99805 47.8602 3.99805C49.9342 3.99805 51.7702 5.17105 51.7702 7.24505C51.7702 8.50305 51.1242 9.28505 50.0022 9.76105V9.79505C51.6002 10.254 52.1612 11.308 52.1612 12.702C52.1612 15.014 50.4442 16.255 47.8942 16.255C44.8002 16.255 43.1172 14.674 43.1172 11.971H45.0212C45.0212 13.552 45.7522 14.572 47.7582 14.572C49.5262 14.572 50.2062 13.892 50.2062 12.651C50.2062 11.036 49.0332 10.679 47.8262 10.679H46.7722V9.11505H47.7582C48.9822 9.11505 49.7982 8.60505 49.7982 7.39805C49.7982 6.42905 49.1862 5.68105 47.7922 5.68105C45.9392 5.68105 45.3442 6.65005 45.3442 7.80605Z" fill="black"/>
<path d="M37.476 16.255C34.161 16.255 32.75 13.467 32.75 10.135C32.75 6.80305 34.161 3.99805 37.476 3.99805C40.791 3.99805 42.202 6.80305 42.202 10.135C42.202 13.467 40.791 16.255 37.476 16.255ZM37.476 14.572C39.55 14.572 40.23 12.583 40.23 10.135C40.23 7.68705 39.55 5.68105 37.476 5.68105C35.402 5.68105 34.705 7.68705 34.705 10.135C34.705 12.583 35.402 14.572 37.476 14.572Z" fill="black"/>
</svg>
