<svg width="56" height="20" viewBox="0 0 56 20" fill="none" xmlns="http://www.w3.org/2000/svg">
<path d="M27.5 10C27.5 12.558 26.0493 14.9211 23.6089 16.6642C21.1695 18.4066 17.7738 19.5 14 19.5C10.2262 19.5 6.83055 18.4066 4.39112 16.6642C1.95074 14.9211 0.5 12.558 0.5 10C0.5 7.44196 1.95074 5.07893 4.39112 3.3358C6.83055 1.59335 10.2262 0.5 14 0.5C17.7738 0.5 21.1695 1.59335 23.6089 3.3358C26.0493 5.07893 27.5 7.44196 27.5 10Z" stroke="white"/>
<path d="M8 15V4H9.49715L14.3147 13.0588H14.374C14.3641 12.7918 14.3493 12.4837 14.3295 12.1345C14.3098 11.7852 14.2949 11.436 14.2851 11.0868C14.2752 10.7274 14.2702 10.4192 14.2702 10.1625V4H15.4413V15H13.9886L9.11174 5.91036H9.05245C9.07222 6.1774 9.08704 6.4958 9.09692 6.86555C9.11669 7.22502 9.13151 7.5845 9.14139 7.94398C9.16116 8.30345 9.17104 8.62185 9.17104 8.89916V15H8ZM16.8495 15V13.937H20.6591V15H16.8495ZM18.7469 12.9356C18.3219 12.9356 17.9415 12.838 17.6055 12.6429C17.2794 12.4374 17.0224 12.1396 16.8347 11.7493C16.6469 11.359 16.553 10.8814 16.553 10.3165C16.553 9.47432 16.7507 8.8324 17.146 8.39076C17.5511 7.93884 18.0996 7.71289 18.7913 7.71289C19.2163 7.71289 19.5918 7.81559 19.9179 8.02101C20.2539 8.21615 20.5158 8.50887 20.7035 8.89916C20.9012 9.27918 21 9.75163 21 10.3165C21 11.1587 20.7974 11.8058 20.3922 12.2577C19.9871 12.7096 19.4386 12.9356 18.7469 12.9356ZM18.7765 12.042C19.2113 12.042 19.5226 11.8982 19.7104 11.6106C19.8981 11.3128 19.992 10.8814 19.992 10.3165C19.992 9.74136 19.8981 9.32026 19.7104 9.05322C19.5226 8.77591 19.2113 8.63726 18.7765 8.63726C18.3516 8.63726 18.0403 8.77591 17.8426 9.05322C17.645 9.32026 17.5462 9.74136 17.5462 10.3165C17.5462 10.8814 17.6401 11.3128 17.8278 11.6106C18.0255 11.8982 18.3417 12.042 18.7765 12.042Z" fill="white"/>
<ellipse cx="42" cy="10" rx="14" ry="10" fill="white"/>
<path d="M50.0173 15.9999H48.0453V13.3309H42.4863V11.4949L48.0453 4.25293H50.0173V11.6649H51.6663V13.3309H50.0173V15.9999ZM48.0453 6.70093L44.2373 11.6649H48.0453V6.70093Z" fill="black"/>
<path d="M36.726 16.255C33.411 16.255 32 13.467 32 10.135C32 6.80305 33.411 3.99805 36.726 3.99805C40.041 3.99805 41.452 6.80305 41.452 10.135C41.452 13.467 40.041 16.255 36.726 16.255ZM36.726 14.572C38.8 14.572 39.48 12.583 39.48 10.135C39.48 7.68705 38.8 5.68105 36.726 5.68105C34.652 5.68105 33.955 7.68705 33.955 10.135C33.955 12.583 34.652 14.572 36.726 14.572Z" fill="black"/>
</svg>
