<svg width="52" height="56" viewBox="0 0 52 56" fill="none" xmlns="http://www.w3.org/2000/svg">
<g id="Layer_1" clip-path="url(#clip0_1040_707)">
<path id="Vector" d="M43.5243 17.3674V28.0727L34.1946 22.7138L24.875 17.3448L34.2224 12.0085L43.5521 6.66211L43.5243 17.3674Z" fill="#A7A7A7"/>
<path id="Vector_2" d="M24.8538 28.0503V38.7556L15.5241 33.3966L6.20703 28.0277L15.5367 22.6913L24.8639 17.345L24.8538 28.0503Z" fill="#D2D2D2"/>
<path id="Vector_3" d="M6.21323 17.3219V6.61914L15.5429 11.9781L24.8625 17.3345L15.5328 22.6909L6.20312 28.0272L6.21323 17.3219Z" fill="white"/>
<path id="Vector_4" d="M6.18565 38.7326L6.20839 28.0273L15.5254 33.3963L24.845 38.7552L15.5153 44.1016L6.16797 49.4379L6.18565 38.7326Z" fill="#A7A7A7"/>
<path id="Vector_5" d="M34.1829 22.7137L24.8633 17.3447V38.7553L34.1601 44.1218L43.4797 49.4782V38.7754L43.5024 28.0701L34.1829 22.7137Z" fill="white"/>
</g>
<defs>
<clipPath id="clip0_1040_707">
<rect width="51.7895" height="56" fill="white" transform="translate(-0.0078125)"/>
</clipPath>
</defs>
</svg>
