<svg width="57" height="56" viewBox="0 0 57 56" fill="none" xmlns="http://www.w3.org/2000/svg">
<g id="mexc-logo 1" clip-path="url(#clip0_1040_714)">
<g id="Layer_x5F_1">
<g id="_2500406570000">
<path id="Vector" d="M55.8783 35.0912L43.7688 14.0868C41.1144 9.70756 34.6408 9.66276 32.0783 14.2727L19.364 36.1172C16.9896 40.1223 19.924 45.1511 24.6751 45.1511H50.1506C54.9487 45.1511 58.5327 39.9812 55.8783 35.0912Z" fill="#EDEDED"/>
<path id="Vector_2" d="M38.4137 36.7222L37.6678 35.4186C36.9689 34.2067 35.4323 31.5994 35.4323 31.5994L25.1865 13.807C22.5321 9.84897 16.2444 9.52193 13.59 14.5059L1.6665 35.1386C-0.801975 39.4707 2.13242 45.1043 7.48826 45.1514H50.0595C43.4918 45.1984 41.3951 41.7981 38.4159 36.7222H38.4137Z" fill="white"/>
<path id="Vector_3" d="M38.4154 36.7225L37.6695 35.4188C36.9706 34.2069 35.434 31.5996 35.434 31.5996L28.8193 19.9561L19.3172 36.1647C16.9428 40.1698 19.8772 45.2009 24.626 45.2009H50.0567C43.442 45.1538 41.3924 41.8005 38.4132 36.7247L38.4154 36.7225Z" fill="#D5D5D5"/>
</g>
</g>
</g>
<defs>
<clipPath id="clip0_1040_714">
<rect width="56" height="56" fill="white" transform="translate(0.78125)"/>
</clipPath>
</defs>
</svg>
