<svg width="54" height="56" viewBox="0 0 54 56" fill="none" xmlns="http://www.w3.org/2000/svg">
<g clip-path="url(#clip0_1040_722)">
<path d="M44.1085 4.59511C40.4111 1.54382 35.3495 0.0361328 28.888 0.0361328H12.8059V2.29767H28.6008C34.0931 2.29767 39.047 3.41049 42.0982 6.0669C45.1495 8.72331 47.4111 12.6002 47.4111 17.4105C47.4111 22.2207 45.4008 25.4874 42.2777 28.1079C39.1546 30.7284 33.4829 31.8772 27.847 31.8772H9.71875V34.1387H27.9905C34.7752 34.1387 40.088 32.6669 43.929 29.7233C47.7341 26.7797 49.6726 22.6156 49.6726 17.2669C49.6726 11.9182 47.8059 7.61049 44.1085 4.59511Z" fill="white"/>
<path d="M42.7465 7.82597C40.4491 6.06699 37.8286 4.66699 30.3619 4.66699H17.9414V6.85673C17.9414 6.85673 23.5055 6.78494 30.0747 6.85673C36.4286 6.92853 38.7619 7.64648 40.9158 9.22597C43.644 11.2362 45.367 13.749 45.367 17.2311C45.367 20.7131 43.644 22.9747 40.8799 25.0208C38.0799 27.1029 33.7722 27.1029 32.0132 27.1747H22.7876V29.3644C22.7876 29.3644 27.0235 29.4362 29.6799 29.3644C35.7106 29.2208 39.3004 28.8619 42.6388 26.3849C45.7619 24.0516 47.4132 21.0003 47.4132 17.1234C47.4132 12.026 44.8286 9.47725 42.7465 7.82597Z" fill="white"/>
<path d="M41.6327 10.7336C39.9096 9.65667 38.4019 8.93872 31.2584 8.93872H22.3199V10.3746H31.0071C37.325 10.3746 39.6943 11.4874 40.4481 11.9541C41.884 12.8156 43.7507 14.2515 43.7507 17.1233C43.7507 18.9541 42.6737 21.2874 41.0584 22.1849C39.5866 23.0105 36.8943 23.7644 32.1917 23.7644H3.04297V25.2003H32.2635C37.9712 25.2003 39.9096 24.5541 41.9199 23.4413C43.9302 22.3285 45.2943 20.031 45.2943 17.1233C45.2943 13.8208 43.4635 11.8823 41.6327 10.7336Z" fill="white"/>
<path d="M47.3038 26.6361C43.6064 23.5848 38.5448 22.0771 32.0833 22.0771H21.3141V24.3387H31.7602C37.2525 24.3387 42.2064 25.4874 45.2577 28.1079C48.3089 30.7284 50.6064 34.6412 50.6064 39.4515C50.6064 44.2618 48.632 47.5284 45.473 50.1489C42.3141 52.7695 36.6782 53.9182 31.0423 53.9182H12.9141V56.1797H31.1859C37.9705 56.1797 43.2833 54.7079 47.1243 51.7643C50.9653 48.8207 52.8679 44.6566 52.8679 39.3079C52.832 33.8874 51.0012 29.6874 47.3038 26.6361Z" fill="white"/>
<path d="M45.94 29.867C43.6426 28.1439 41.0221 26.708 33.5554 26.708H16.6836V28.8978C16.6836 28.8978 26.699 28.826 33.2682 28.8978C39.6221 28.9695 41.9554 29.6875 44.1092 31.267C46.8374 33.2772 48.5605 35.7901 48.5605 39.2721C48.5605 42.7542 46.8374 45.0157 44.0733 47.0619C41.2733 49.1439 36.9656 49.1439 35.2067 49.2157H25.981V51.4054C25.981 51.4054 30.2528 51.4772 32.8733 51.4054C38.9041 51.2619 42.4938 50.9029 45.8323 48.426C48.9554 46.0926 50.6067 43.0413 50.6067 39.1644C50.6067 34.1029 48.0579 31.5183 45.94 29.867Z" fill="white"/>
<path d="M20.2734 37.3328H36.1042V36.1123H20.2734V37.3328Z" fill="white"/>
<path d="M26.8086 41.6055H35.9983V40.5645H26.8086V41.6055Z" fill="white"/>
<path d="M12.9141 37.3338H17.5807V36.1133H12.9141V37.3338Z" fill="white"/>
<path d="M9.97266 41.6775H24.2239V40.457H9.97266V41.6775Z" fill="white"/>
<path d="M13.4883 10.2668H19.0524V9.26172H13.4883V10.2668Z" fill="white"/>
<path d="M9.64844 18.4515H22.3202V17.3027H9.64844V18.4515Z" fill="white"/>
<path d="M9.97266 51.2621H23.3624V49.8262H9.97266V51.2621Z" fill="white"/>
<path d="M6.66797 56.0359H10.0064V53.918H6.66797V56.0359Z" fill="white"/>
<path d="M14.9961 14.8616H36.032V13.7129H14.9961V14.8616Z" fill="white"/>
<path d="M25.5156 18.4515H35.6387V17.3027H25.5156V18.4515Z" fill="white"/>
<path d="M44.828 32.9894C43.105 31.9484 41.5973 31.2305 34.4537 31.2305H23.1101V32.6305H34.2383C40.5562 32.6305 42.9614 33.7074 43.6793 34.1382C45.0793 34.9638 46.9819 36.3279 46.9819 39.1279C46.9819 40.9228 45.905 43.1484 44.2896 44.01C42.8178 44.7997 40.1255 45.5177 35.4229 45.5177H6.23828V46.9176H35.4588C41.1665 46.9176 43.105 46.3074 45.1152 45.2305C47.1255 44.1535 48.4537 41.9638 48.4537 39.1279C48.4896 36.0048 46.6588 34.1382 44.828 32.9894Z" fill="white"/>
</g>
<defs>
<clipPath id="clip0_1040_722">
<rect width="52.2667" height="56" fill="white" transform="translate(0.78125)"/>
</clipPath>
</defs>
</svg>
