<svg width="71" height="60" viewBox="0 0 71 60" fill="none" xmlns="http://www.w3.org/2000/svg">
<g clip-path="url(#clip0_1040_741)" filter="url(#filter0_d_1040_741)">
<path fill-rule="evenodd" clip-rule="evenodd" d="M43.7029 27.2862C48.5989 33.7415 55.2147 37.1727 63.2614 38.0237C66.2039 38.3345 66.2108 38.2701 66.2115 41.1519C66.2115 44.0664 66.1315 46.9835 66.2442 49.893C66.302 51.3827 65.7133 51.6932 64.36 51.6033C53.6921 50.8903 44.3758 47.1444 36.6509 39.7472C36.2168 39.3319 35.8913 38.6434 35.0753 38.8236C34.5407 38.5747 34.2589 38.0712 33.8714 37.6719C33.3197 36.8992 32.7281 36.1573 32.1165 35.4292C30.3269 32.9308 28.5315 30.4355 27.1795 27.6668C22.8205 21.5389 16.6383 18.3759 9.34922 17.0451C7.87562 16.7764 5.85064 17.1655 5.02267 16.3358C4.04709 15.3583 4.74843 13.359 4.71261 11.8049C4.66305 9.66767 4.81735 7.51971 4.66305 5.39243C4.53967 3.69337 5.08382 3.21289 6.79747 3.32368C17.2905 3.99917 26.3884 7.79643 34.0492 14.9171C34.5181 15.3531 35.0127 15.7629 35.4953 16.1845C36.3626 16.4681 36.9342 17.1045 37.4733 17.7837C37.8723 18.4305 38.3921 18.9873 38.861 19.5836C40.6169 22.0652 42.4545 24.4956 43.7029 27.2862Z" fill="white"/>
<path fill-rule="evenodd" clip-rule="evenodd" d="M44.516 9.28495C50.6693 5.38011 57.4785 3.65374 64.7202 3.32349C65.8014 3.27461 66.2571 3.56239 66.2349 4.73067C66.1668 8.28421 66.1925 11.8397 66.2229 15.3947C66.2305 16.2709 65.9773 16.6498 65.0122 16.6809C61.2334 16.8011 57.6424 17.7926 54.1351 19.1207C53.066 18.2281 52.5206 16.9548 51.7239 15.8643C50.2207 13.8084 48.278 12.2478 46.1566 10.8732C45.503 10.4495 44.7174 10.1613 44.516 9.28495ZM26.0792 45.7454C19.9873 49.6301 13.1743 51.1112 6.05942 51.6055C5.03608 51.6762 4.66777 51.3263 4.68152 50.2933C4.73018 46.7401 4.73561 43.1853 4.67844 39.6325C4.66089 38.5488 4.96517 38.1436 6.12092 38.1347C9.84562 38.1045 13.3572 37.0719 16.7793 35.6996C17.8742 36.173 18.1344 37.3063 18.7427 38.1556C20.3261 40.3653 21.9824 42.4832 24.3844 43.9186C25.108 44.3511 25.8656 44.8209 26.0792 45.7454Z" fill="white"/>
<path fill-rule="evenodd" clip-rule="evenodd" d="M26.0793 45.7456C22.0078 43.2724 18.7498 40.0657 16.7793 35.6997L18.5409 34.8782C20.1069 36.773 21.2596 38.9701 23.1044 40.672C24.6748 42.1198 26.6187 43.0385 28.2115 44.4345C27.6412 45.0928 26.8962 45.4759 26.0793 45.7456ZM44.5161 9.28516C48.0362 11.2783 51.2131 13.6321 53.2643 17.2101C53.6181 17.8272 54.0622 18.3866 54.135 19.121C53.5548 19.4102 52.9749 19.699 52.3951 19.9877C50.3057 16.5346 47.6863 13.5927 44.1183 11.5418C43.5937 11.2413 42.928 10.9091 43.2465 10.0704C43.5667 9.64663 43.9819 9.37276 44.5161 9.28516Z" fill="white"/>
<path fill-rule="evenodd" clip-rule="evenodd" d="M39.4473 12.7645C39.7248 12.3146 40.13 12.028 40.6321 11.866C41.2846 11.4817 41.9668 11.393 42.6772 11.6887C46.3558 13.2165 49.2232 15.6321 51.0365 19.1806C51.2883 19.6741 51.5443 20.2151 51.0978 20.7571C50.664 21.037 50.2299 21.3179 49.7966 21.5974C48.9956 21.1568 48.7208 20.298 48.196 19.6381C46.3659 17.3335 44.3373 15.2792 41.5151 14.1262C40.7584 13.8168 39.7984 13.7114 39.4473 12.7645Z" fill="white"/>
<path fill-rule="evenodd" clip-rule="evenodd" d="M51.0965 20.758C49.1412 16.0386 45.8919 12.801 40.6309 11.867C41.4042 11.1292 42.1746 10.387 43.2457 10.0703C45.5395 11.9615 48.1687 13.4618 50.0801 15.7989C51.1108 17.0593 52.3527 18.1992 52.3943 19.9876L51.0965 20.758Z" fill="white"/>
<path fill-rule="evenodd" clip-rule="evenodd" d="M37.2058 17.8972C36.4905 17.4667 35.9097 16.9059 35.4941 16.1848C35.9019 15.8458 36.3098 15.5064 36.7176 15.168C41.1752 15.5908 44.4766 17.8032 46.7854 21.5269C47.1563 22.1246 47.5333 22.7525 47.2323 23.5122C46.9392 24.079 46.4502 24.4384 45.9012 24.7335C45.2721 24.5765 45.024 24.0498 44.7567 23.5566C43.1168 20.5287 40.6975 18.5186 37.2058 17.8972Z" fill="white"/>
<path fill-rule="evenodd" clip-rule="evenodd" d="M31.1962 42.2748C30.9279 42.7392 30.5281 43.0327 30.0061 43.1676C29.5274 43.3152 29.0692 43.4909 28.5345 43.3794C24.8461 42.6099 20.5207 38.0005 19.873 34.1236C20.1974 33.6754 20.6571 33.429 21.1744 33.2676C21.8998 33.3959 22.2499 33.9516 22.5746 34.5069C24.3244 37.5003 26.737 39.7673 29.9675 41.1606C30.4959 41.3884 31.0251 41.6491 31.1962 42.2748Z" fill="white"/>
<path fill-rule="evenodd" clip-rule="evenodd" d="M19.8739 34.123C20.4461 35.1077 21.0316 36.0849 21.5881 37.0782C23.4423 40.3921 26.3611 42.2673 30.0069 43.167C29.5264 43.7522 28.9494 44.204 28.2115 44.434C23.5749 42.6385 20.3245 39.48 18.541 34.8777C18.9853 34.6256 19.4296 34.3743 19.8739 34.123Z" fill="white"/>
<path fill-rule="evenodd" clip-rule="evenodd" d="M34.2006 37.5357C34.7629 37.7864 35.0509 38.218 35.0744 38.8246C34.7477 39.106 34.4208 39.3881 34.0937 39.6702C30.5212 39.9019 27.9625 38.0339 25.8623 35.5344C24.842 34.3205 23.3612 33.1519 23.7999 31.1935C24.1765 30.8663 24.5537 30.5388 24.9307 30.2108C26.0439 30.0056 26.2138 30.9664 26.5146 31.5878C28.0874 34.839 30.8052 36.6017 34.2006 37.5357Z" fill="white"/>
<path fill-rule="evenodd" clip-rule="evenodd" d="M39.4462 12.7656C44.0802 14.3594 47.8136 16.9811 49.7953 21.5985C49.3572 21.9118 48.9193 22.226 48.4818 22.5392C47.7702 22.3641 47.5106 21.7479 47.1837 21.214C45.1674 17.9171 42.3774 15.6726 38.4682 14.9318C38.1131 14.8645 37.7837 14.735 37.5645 14.4237C38.0482 13.7125 38.6668 13.1512 39.4462 12.7656Z" fill="white"/>
<path fill-rule="evenodd" clip-rule="evenodd" d="M37.5671 14.4238C43.0348 14.7359 46.2298 18.0223 48.4845 22.5391C48.0679 22.8632 47.6517 23.1882 47.2352 23.5124C45.3962 19.3712 42.2582 16.7656 37.7815 15.76C37.3499 15.6628 36.9414 15.5998 36.7207 15.1684C36.8815 14.786 37.1536 14.5264 37.5671 14.4238Z" fill="white"/>
<path fill-rule="evenodd" clip-rule="evenodd" d="M23.7983 31.1934C25.6634 35.869 29.164 38.6128 34.0924 39.67C33.8849 40.3089 33.3451 40.6261 32.814 40.9512C31.4972 41.5762 30.4648 40.7374 29.3933 40.2564C26.6895 39.0443 24.5719 37.1787 23.1949 34.553C22.7674 33.7385 22.2462 32.9133 22.9036 31.9705C23.2019 31.712 23.4999 31.4528 23.7983 31.1934Z" fill="white"/>
<path fill-rule="evenodd" clip-rule="evenodd" d="M22.9071 31.9707C23.7935 36.4525 27.0864 38.7131 30.9604 40.4181C31.5439 40.6743 32.1968 40.7768 32.8175 40.9512C32.4025 41.5405 31.8468 41.9617 31.1993 42.2743C26.5747 40.6623 23.4194 37.4592 21.1777 33.2671L22.9071 31.9707Z" fill="white"/>
<path fill-rule="evenodd" clip-rule="evenodd" d="M34.2018 37.5354C31.8966 38.1097 30.4621 36.4742 28.8088 35.4369C26.839 34.201 26.4427 31.7971 24.9316 30.2105C25.474 29.4438 26.0197 28.6793 26.815 28.1348C27.7128 30.0952 28.016 32.3558 29.9749 33.7722C30.7839 34.3576 31.5019 35.054 32.4699 35.3949C33.3814 35.8454 33.7752 36.7031 34.2018 37.5354Z" fill="white"/>
<path fill-rule="evenodd" clip-rule="evenodd" d="M37.209 17.8969C39.2768 17.1035 40.6661 18.4655 42.0806 19.4989C43.895 20.8238 45.0524 22.6877 45.9044 24.7331C45.584 25.2816 45.2146 25.7836 44.6271 26.0864C43.8393 25.6127 43.5951 24.7634 43.2358 24.0216C42.2264 21.9398 40.2812 20.8624 38.5064 19.5947C37.8345 19.2063 37.2669 18.7411 37.209 17.8969Z" fill="white"/>
<path fill-rule="evenodd" clip-rule="evenodd" d="M32.4686 35.3945C31.9346 36.1159 31.3633 35.5922 30.9939 35.3019C28.6562 33.4635 26.5469 31.4629 26.8139 28.1344C26.9355 27.9784 27.0574 27.8228 27.1791 27.666C29.4355 29.9134 30.7537 32.7861 32.4686 35.3945Z" fill="white"/>
<path fill-rule="evenodd" clip-rule="evenodd" d="M38.5059 19.5947C42.0611 20.3689 43.607 22.9864 44.6266 26.0864L43.7042 27.2863C41.5697 24.9867 40.1734 22.2009 38.5059 19.5947Z" fill="white"/>
</g>
<defs>
<filter id="filter0_d_1040_741" x="0.0488281" y="0" width="72.666" height="64" filterUnits="userSpaceOnUse" color-interpolation-filters="sRGB">
<feFlood flood-opacity="0" result="BackgroundImageFix"/>
<feColorMatrix in="SourceAlpha" type="matrix" values="0 0 0 0 0 0 0 0 0 0 0 0 0 0 0 0 0 0 127 0" result="hardAlpha"/>
<feOffset dy="4"/>
<feGaussianBlur stdDeviation="2"/>
<feComposite in2="hardAlpha" operator="out"/>
<feColorMatrix type="matrix" values="0 0 0 0 0 0 0 0 0 0 0 0 0 0 0 0 0 0 0.25 0"/>
<feBlend mode="normal" in2="BackgroundImageFix" result="effect1_dropShadow_1040_741"/>
<feBlend mode="normal" in="SourceGraphic" in2="effect1_dropShadow_1040_741" result="shape"/>
</filter>
<clipPath id="clip0_1040_741">
<rect width="64.6667" height="56" fill="white" transform="translate(4.04883)"/>
</clipPath>
</defs>
</svg>
