<svg width="57" height="56" viewBox="0 0 57 56" fill="none" xmlns="http://www.w3.org/2000/svg">
<g clip-path="url(#clip0_1040_760)">
<path d="M45.3714 55.9518C44.4561 55.9698 43.7765 55.6067 43.1868 55.0153C39.8331 51.6535 36.4739 48.2967 33.1167 44.9384C31.8363 43.6574 30.5587 42.3743 29.2749 41.0967C28.6914 40.5164 28.8179 40.4707 28.2068 41.0822C23.579 45.7104 18.9484 50.3365 14.3281 54.9731C13.5365 55.7671 12.633 56.149 11.5109 55.947C10.9461 55.8453 10.4684 55.5811 10.0646 55.1771C7.21285 52.3238 4.35554 49.4761 1.51136 46.6145C0.520671 45.617 0.451537 43.9991 1.31848 42.8979C1.46781 42.7084 1.63235 42.5278 1.80311 42.357C15.5539 28.5982 29.3074 14.8422 43.0527 1.07862C43.8664 0.263791 44.7907 -0.200346 45.9314 0.0839465C46.4326 0.208454 46.9684 0.470611 47.3327 0.828916C50.2205 3.6663 53.0785 6.53343 55.9289 9.40886C57.0364 10.526 56.9604 12.2649 55.7913 13.4823C55.3468 13.9451 54.8856 14.3919 54.4321 14.8457C50.1984 19.0817 45.9639 23.3177 41.7301 27.5537C41.4305 27.8535 41.4298 28.1528 41.728 28.4516C46.3856 33.1109 51.039 37.7744 55.7035 42.4275C56.6534 43.3752 56.9182 44.4667 56.4488 45.7069C56.3126 46.0673 56.0589 46.4104 55.7844 46.6871C53.0031 49.492 50.2073 52.2823 47.4129 55.0741C46.8343 55.6516 46.1499 55.9933 45.3721 55.9525L45.3714 55.9518Z" fill="white"/>
<path d="M23.463 11.3956C23.4927 12.2485 23.1485 12.9243 22.5871 13.488C19.8003 16.2873 17.0128 19.086 14.2087 21.8673C12.9913 23.0744 11.2546 23.0564 10.0434 21.8501C7.25591 19.0722 4.47396 16.288 1.69615 13.5004C0.455192 12.2554 0.418551 10.5545 1.65329 9.30454C4.42971 6.49621 7.22411 3.70447 10.0296 0.923807C11.2622 -0.297749 13.0037 -0.297749 14.2385 0.925191C17.0342 3.69479 19.8114 6.48376 22.5864 9.27411C23.1692 9.86068 23.5204 10.5655 23.463 11.3956Z" fill="white"/>
</g>
<defs>
<clipPath id="clip0_1040_760">
<rect width="56" height="56" fill="white" transform="translate(0.714844)"/>
</clipPath>
</defs>
</svg>
