<svg width="71" height="56" viewBox="0 0 71 56" fill="none" xmlns="http://www.w3.org/2000/svg">
<path d="M61.1575 5.14554C59.6236 4.50917 57.8523 4.85463 56.6836 6.03644L41.3079 21.3637V29.691L57.7792 13.291V40.6183H30.3879L27.2288 35.5092L16.1992 46.5092H59.6053C61.8697 46.5092 63.714 44.6728 63.714 42.4183V8.90917C63.6957 7.25463 62.7097 5.7819 61.1575 5.14554Z" fill="white"/>
<path d="M20.3814 40.6H16.017L34.1866 22.5091V39.4H40.1031V18.1637C40.1031 16.5091 39.0987 15.0182 37.5648 14.3819C36.0309 13.7455 34.2596 14.091 33.0909 15.2728L1.71875 46.5091H14.4648L20.3814 40.6Z" fill="#E3E3E3"/>
<path d="M33.9332 40.6182H22.1001L16.1836 46.5091H36.0149C38.2792 46.5091 40.1236 44.6727 40.1236 42.4182V40.6182H33.9332Z" fill="white"/>
</svg>
