<svg width="52" height="56" viewBox="0 0 52 56" fill="none" xmlns="http://www.w3.org/2000/svg">
<g clip-path="url(#clip0_1040_770)">
<path d="M5.79594 0.0694435C9.46638 -0.432352 12.7632 1.82855 13.4784 5.452C14.1917 13.5972 12.8198 22.6596 13.5539 30.6978C13.8841 34.3137 17.4319 29.6603 18.3698 28.9105C23.2404 25.022 29.5698 25.6065 34.2839 29.3728C38.8337 33.0094 44.0082 38.266 47.939 42.5961C50.9546 45.917 53.44 50.1268 49.4412 54.0378C42.9948 60.345 36.2502 49.7472 31.9325 45.9696C22.8913 38.0574 17.5885 49.283 11.3063 54.3235C6.94708 57.821 0.779989 55.3346 0.185547 49.8261L0.193095 5.93124C0.544099 3.04451 2.84827 0.471632 5.79594 0.0694435Z" fill="white"/>
<path d="M43.2822 0.637103C49.4228 0.206724 53.5235 6.83907 50.0645 12.0844C48.9303 13.8041 43.301 20.4909 41.7951 21.4813C34.8524 26.0558 26.4 18.0346 31.6443 10.8102C33.0936 8.8143 37.1056 3.9918 38.8871 2.45447C40.0269 1.47155 41.7744 0.742348 43.2803 0.637103H43.2822Z" fill="white"/>
</g>
<defs>
<clipPath id="clip0_1040_770">
<rect width="51.3333" height="56" fill="white" transform="translate(0.181641)"/>
</clipPath>
</defs>
</svg>
