<svg width="45" height="56" viewBox="0 0 45 56" fill="none" xmlns="http://www.w3.org/2000/svg">
<g clip-path="url(#clip0_1040_773)">
<path d="M7.94724 17.1561C9.86423 16.9073 11.9757 17.3441 13.6982 18.2361C17.678 20.296 17.7054 25.5808 23.6356 24.9316C27.6215 24.4947 27.9253 21.3032 30.3587 19.2099C34.8094 15.3783 42.2344 17.0074 44.2334 22.635C45.6673 26.676 44.6314 37.3942 44.4673 42.0965C44.3549 45.3305 45.0628 49.2562 43.6227 52.1746C41.0131 57.4625 32.698 57.1652 30.2828 51.7347C27.8706 46.3104 32.9836 31.9244 23.6872 31.0203C13.1514 29.9949 16.5631 42.8094 15.8856 49.0468C14.9043 58.0662 1.69802 58.8762 0.738006 48.1701C0.0453365 40.4522 1.22105 31.7545 0.759272 23.9304C1.50055 20.5235 4.45047 17.6081 7.95027 17.1591L7.94724 17.1561Z" fill="white"/>
<path d="M35.2885 0.157307C47.2097 -1.86014 47.8204 16.1967 37.0901 16.0481C27.3988 15.9146 26.858 1.5862 35.2885 0.157307Z" fill="white"/>
<path d="M2.96761 13.9312C-1.19448 9.76885 0.628332 0.946706 6.68311 0.112425C18.0939 -1.45906 19.0631 15.0172 9.40214 15.8728C7.06894 16.0791 4.66283 15.6301 2.96761 13.9312Z" fill="white"/>
</g>
<defs>
<clipPath id="clip0_1040_773">
<rect width="44.4706" height="56" fill="white" transform="translate(0.513672)"/>
</clipPath>
</defs>
</svg>
