<svg width="57" height="56" viewBox="0 0 57 56" fill="none" xmlns="http://www.w3.org/2000/svg">
<g clip-path="url(#clip0_1040_777)">
<path d="M28.9844 56C44.4483 56 56.9844 43.464 56.9844 28C56.9844 12.536 44.4483 0 28.9844 0C13.5204 0 0.984375 12.536 0.984375 28C0.984375 43.464 13.5204 56 28.9844 56Z" fill="white"/>
<path d="M36.3911 31.6786C38.5465 31.6786 40.2939 29.9107 40.2939 27.7299C40.2939 25.5491 38.5465 23.7812 36.3911 23.7812C34.2356 23.7812 32.4883 25.5491 32.4883 27.7299C32.4883 29.9107 34.2356 31.6786 36.3911 31.6786Z" fill="black"/>
<path d="M47.0628 33.5623L46.9481 33.3826L46.9175 33.3329C46.4894 32.6602 46.3594 32.5187 46.153 32.2091C43.2976 27.8132 44.9298 24.9883 46.2142 23.5472C46.3709 23.3714 46.5161 23.165 46.6499 23.0045C46.8457 22.778 47.0138 22.5291 47.1507 22.2629L47.1736 22.2247C47.433 21.7065 47.5641 21.1336 47.5559 20.5542C47.4706 19.6034 47.0326 18.7188 46.328 18.0747C45.6234 17.4305 44.7033 17.0732 43.7486 17.0732C42.794 17.0732 41.8739 17.4305 41.1693 18.0747C40.4647 18.7188 40.0267 19.6034 39.9414 20.5542C39.9413 21.1879 40.1017 21.8112 40.4078 22.3661C40.4536 22.4578 40.6715 22.7483 40.6944 22.798C40.7409 22.8709 40.7947 22.9388 40.855 23.0006C40.9876 23.165 41.1306 23.3208 41.2831 23.467C41.6622 23.8888 41.993 24.3516 42.2693 24.8469C42.8172 25.9696 43.0446 27.2217 42.9265 28.4654C42.8085 29.709 42.3496 30.896 41.6004 31.8956L40.6524 33.2565C40.6222 33.2957 40.5941 33.3365 40.5683 33.3788L40.5454 33.4094C40.1609 34.0184 39.9629 34.7266 39.9758 35.4468C40.0611 36.3976 40.4991 37.2821 41.2037 37.9263C41.9083 38.5705 42.8284 38.9277 43.783 38.9277C44.7377 38.9277 45.6578 38.5705 46.3624 37.9263C47.067 37.2821 47.505 36.3976 47.5903 35.4468C47.5895 34.7838 47.4113 34.1332 47.0742 33.5623H47.0628Z" fill="black"/>
<path d="M32.2799 33.5624L32.169 33.3827L32.1346 33.333C31.7065 32.6603 31.5765 32.5188 31.3701 32.2092C28.5147 27.8133 30.1469 24.9885 31.4313 23.5474C31.588 23.3715 31.7333 23.1651 31.8671 23.0046C32.0628 22.7781 32.2309 22.5292 32.3678 22.263L32.3907 22.2248C32.6462 21.7052 32.7771 21.1333 32.773 20.5543C32.784 19.9664 32.6593 19.3839 32.4084 18.8521C32.1576 18.3203 31.7875 17.8535 31.3268 17.488C30.8662 17.1226 30.3274 16.8684 29.7525 16.7451C29.1775 16.6218 28.5819 16.6329 28.0119 16.7773C27.4419 16.9218 26.913 17.1958 26.4662 17.5781C26.0194 17.9603 25.6668 18.4405 25.4358 18.9813C25.2049 19.522 25.1018 20.1087 25.1346 20.6958C25.1673 21.2829 25.3351 21.8545 25.6249 22.3662C25.6707 22.4579 25.8886 22.7485 25.9116 22.7981C25.958 22.871 26.0118 22.9389 26.0721 23.0007C26.2048 23.1651 26.3478 23.3209 26.5002 23.4671C26.8831 23.8885 27.2178 24.3513 27.4979 24.847C28.048 25.9681 28.2784 27.2192 28.1637 28.4627C28.0491 29.7063 27.5939 30.8941 26.8481 31.8958C26.6177 32.2223 26.3621 32.5304 26.0836 32.817L26.0186 32.882C25.5936 33.2656 25.1269 33.6002 24.6272 33.8796C20.6441 35.7794 17.4217 33.1534 17.4217 33.1534L17.0968 32.8858C16.8556 32.6982 16.6498 32.4691 16.489 32.2092C13.6336 27.8133 15.2658 24.9885 16.5502 23.5474C16.7069 23.3715 16.8522 23.1651 16.986 23.0046C17.1817 22.7781 17.3498 22.5292 17.4867 22.263L17.5096 22.2248C17.7736 21.7075 17.9111 21.135 17.911 20.5543C17.8257 19.6035 17.3877 18.719 16.6831 18.0748C15.9786 17.4306 15.0584 17.0734 14.1038 17.0734C13.1491 17.0734 12.229 17.4306 11.5244 18.0748C10.8199 18.719 10.3818 19.6035 10.2965 20.5543C10.2964 21.188 10.4568 21.8113 10.7629 22.3662C10.8088 22.4579 11.0266 22.7485 11.0496 22.7981C11.096 22.871 11.1498 22.9389 11.2101 23.0007C11.3428 23.1651 11.4858 23.3209 11.6382 23.4671C12.0147 23.8893 12.3429 24.3521 12.6168 24.847C13.1646 25.9697 13.3921 27.2218 13.274 28.4655C13.156 29.7092 12.6971 30.8961 11.9479 31.8958L11.4624 32.5838C11.089 32.9408 10.7918 33.3697 10.5888 33.8447C10.3858 34.3197 10.2812 34.8309 10.2813 35.3475V35.4354C10.2948 36.185 10.5284 36.9141 10.9532 37.5319C11.3779 38.1497 11.9749 38.629 12.6699 38.9101C13.3649 39.1912 14.1273 39.2617 14.8621 39.1129C15.5968 38.964 16.2716 38.6024 16.8025 38.073C16.9898 37.943 17.1121 37.8513 17.2841 37.7404C21.68 34.885 24.5049 36.5172 25.9498 37.8016C26.0645 37.9048 26.1868 38.0042 26.3091 38.0959C26.8434 38.6197 27.5197 38.9753 28.2541 39.1184C28.9885 39.2615 29.7488 39.1859 30.4407 38.901C31.1326 38.6161 31.7256 38.1345 32.1463 37.5157C32.567 36.8969 32.7969 36.1683 32.8074 35.4201C32.8066 34.7572 32.6284 34.1065 32.2914 33.5356L32.2799 33.5624Z" fill="black"/>
</g>
<defs>
<clipPath id="clip0_1040_777">
<rect width="56" height="56" fill="white" transform="translate(0.984375)"/>
</clipPath>
</defs>
</svg>
