<svg width="52" height="56" viewBox="0 0 52 56" fill="none" xmlns="http://www.w3.org/2000/svg">
<g clip-path="url(#clip0_1040_783)">
<path d="M31.3223 16.2588L26.7746 13.6035C26.3491 13.389 25.8794 13.2773 25.403 13.2773C24.9267 13.2773 24.4569 13.389 24.0315 13.6035L19.4838 16.2588C18.5092 16.8369 18.4912 17.7762 19.4838 18.3362L24.0315 21.0277C24.4543 21.2508 24.9251 21.3674 25.403 21.3674C25.881 21.3674 26.3517 21.2508 26.7746 21.0277L31.3223 18.3362C31.5368 18.2602 31.7224 18.1195 31.8538 17.9334C31.9851 17.7474 32.0556 17.5253 32.0556 17.2975C32.0556 17.0698 31.9851 16.8476 31.8538 16.6616C31.7224 16.4756 31.5368 16.3349 31.3223 16.2588Z" fill="white"/>
<path d="M49.0603 12.9708L27.0796 0.326107C26.6542 0.111686 26.1844 0 25.7081 0C25.2317 0 24.762 0.111686 24.3366 0.326107L2.35591 12.9708C1.95877 13.2352 1.62824 13.588 1.39027 14.0018C1.1523 14.4155 1.01336 14.8788 0.984375 15.3553L0.984375 40.6447C1.01336 41.1212 1.1523 41.5845 1.39027 41.9982C1.62824 42.412 1.95877 42.7648 2.35591 43.0292L24.3366 55.6739C24.762 55.8883 25.2317 56 25.7081 56C26.1844 56 26.6542 55.8883 27.0796 55.6739L49.0603 43.0292C49.4574 42.7648 49.788 42.412 50.0259 41.9982C50.2639 41.5845 50.4028 41.1212 50.4318 40.6447V15.3553C50.4028 14.8788 50.2639 14.4155 50.0259 14.0018C49.788 13.588 49.4574 13.2352 49.0603 12.9708ZM39.2791 18.8416L26.7728 26.2117C26.35 26.4347 25.8793 26.5513 25.4013 26.5513C24.9233 26.5513 24.4526 26.4347 24.0298 26.2117L16.0893 21.5512C15.1148 20.9551 14.2847 21.4247 14.2847 22.5628V36.6707C14.3189 36.894 14.2859 37.1224 14.1899 37.3269C14.0939 37.5314 13.9393 37.7027 13.7458 37.819C13.5522 37.9352 13.3285 37.9911 13.1031 37.9797C12.8777 37.9682 12.6608 37.8898 12.48 37.7545L11.1265 37.05C10.7183 36.8032 10.3767 36.4602 10.1313 36.0508C9.88598 35.6415 9.74438 35.1784 9.71889 34.7017V19.3835C9.74788 18.907 9.88681 18.4437 10.1248 18.03C10.3627 17.6163 10.6933 17.2634 11.0904 16.9991L24.0117 9.4845C24.4372 9.27008 24.9069 9.1584 25.3833 9.1584C25.8596 9.1584 26.3293 9.27008 26.7548 9.4845L39.261 16.7101C39.4969 16.7699 39.7063 16.9062 39.8565 17.0978C40.0068 17.2894 40.0894 17.5253 40.0914 17.7689C40.0935 18.0124 40.0149 18.2497 39.8679 18.4438C39.7209 18.6379 39.5139 18.7778 39.2791 18.8416Z" fill="white"/>
</g>
<defs>
<clipPath id="clip0_1040_783">
<rect width="50.5302" height="56" fill="white" transform="translate(0.984375)"/>
</clipPath>
</defs>
</svg>
