<svg width="51" height="56" viewBox="0 0 51 56" fill="none" xmlns="http://www.w3.org/2000/svg">
<g clip-path="url(#clip0_1040_787)">
<path d="M24.9482 0.0399009C26.3967 -0.120891 28.1078 0.215535 29.4188 0.846333L47.4335 11.4611C51.7764 14.5384 50.9687 19.0281 50.9196 23.7183C50.8729 28.2007 50.9982 32.7771 50.8656 37.2471C50.7649 40.688 49.8222 43.1766 46.8419 45.0541C41.2715 48.5619 35.1708 51.5105 29.5563 54.9787C26.9171 56.3219 24.364 56.3565 21.7248 54.9787L4.18883 44.6534C2.14137 43.273 0.965428 41.1555 0.530895 38.7313C0.47934 33.2718 0.567719 27.8049 0.656099 22.3602C0.712564 18.7709 0.106181 15.6021 2.625 12.6583C3.7813 11.3077 5.3525 10.5656 6.87214 9.71213C10.1348 9.7814 12.6365 12.4209 12.8402 15.654C12.9188 20.8834 12.5284 26.3405 12.7764 31.555C13.0538 37.4128 19.044 41.445 24.4646 41.7245C34.7093 42.2514 41.8484 31.56 37.368 22.1995C36.0914 19.5328 34.395 17.8061 31.5571 16.9032C28.7191 16.0003 25.7682 15.3819 22.9376 14.5581C22.2625 14.6126 21.7617 15.0306 21.5775 15.6837C21.6217 17.1036 21.4278 18.7066 21.5505 20.1067C21.6168 20.8686 22.1152 21.5217 22.8075 21.8061C24.4474 22.4864 26.6594 22.7734 28.395 23.3547C31.7363 24.4728 32.382 29.0393 30.607 31.7777C27.8255 36.0721 20.7453 35.2359 19.9032 30.0114V8.00032C20.026 6.03372 20.5464 4.0869 21.4842 2.35777C21.688 1.98424 22.3361 0.883438 22.6504 0.685541C23.0481 0.435696 24.4646 0.0918489 24.9507 0.0374272L24.9482 0.0399009Z" fill="white"/>
</g>
<defs>
<clipPath id="clip0_1040_787">
<rect width="50.4918" height="56" fill="white" transform="translate(0.515625)"/>
</clipPath>
</defs>
</svg>
