<svg width="434" height="100" viewBox="0 0 434 100" fill="none" xmlns="http://www.w3.org/2000/svg">
<g clip-path="url(#clip0_849_42)">
<path d="M239.576 -16.7285V-16.9785H239.326H238.061H237.811V-16.7285V99.0582V99.3082H238.061H239.326H239.576V99.0582V-16.7285Z" fill="black" stroke="black" stroke-width="0.5"/>
<path d="M339.354 -16.7285V-16.9785H339.104H337.838H337.588V-16.7285V99.0582V99.3082H337.838H339.104H339.354V99.0582V-16.7285Z" fill="black" stroke="black" stroke-width="0.5"/>
<path d="M211.236 -16.7266V-16.9766H210.986H209.721H209.471V-16.7266V99.0602V99.3102H209.721H210.986H211.236V99.0602V-16.7266Z" fill="black" stroke="black" stroke-width="0.5"/>
<path d="M217.404 -16.7266V-16.9766H217.154H215.889H215.639V-16.7266V99.0602V99.3102H215.889H217.154H217.404V99.0602V-16.7266Z" fill="black" stroke="black" stroke-width="0.5"/>
<path d="M222.189 -16.7266V-16.9766H221.939H221.432H221.182V-16.7266V99.0602V99.3102H221.432H221.939H222.189V99.0602V-16.7266Z" fill="black" stroke="black" stroke-width="0.5"/>
<path d="M183.287 -16.7266V-16.9766H183.037H181.771H181.521V-16.7266V99.0602V99.3102H181.771H183.037H183.287V99.0602V-16.7266Z" fill="black" stroke="black" stroke-width="0.5"/>
<path d="M189.451 -16.7266V-16.9766H189.201H187.936H187.686V-16.7266V99.0602V99.3102H187.936H189.201H189.451V99.0602V-16.7266Z" fill="black" stroke="black" stroke-width="0.5"/>
<path d="M195.748 -16.7266V-16.9766H195.498H194.99H194.74V-16.7266V99.0602V99.3102H194.99H195.498H195.748V99.0602V-16.7266Z" fill="black" stroke="black" stroke-width="0.5"/>
<path d="M9.11535 -16.7266V-16.9766H8.86535H6.33398H6.08398V-16.7266L6.08398 99.0602V99.3102H6.33398H8.86535H9.11535V99.0602V-16.7266Z" fill="black" stroke="black" stroke-width="0.5"/>
<path d="M1.16415 -16.7266V-16.9766H0.914147H-3.64648H-3.89648V-16.7266L-3.89648 99.0602V99.3102H-3.64648H0.914147H1.16415V99.0602L1.16415 -16.7266Z" fill="black" stroke="black" stroke-width="0.5"/>
<path d="M49.3771 -16.7285V-16.9785H49.1271H46.5957H46.3457V-16.7285V99.0582V99.3082H46.5957H49.1271H49.3771V99.0582V-16.7285Z" fill="black" stroke="black" stroke-width="0.5"/>
<path d="M79.9806 -16.7266V-16.9766H79.7306H75.1699H74.9199V-16.7266V99.0602V99.3102H75.1699H79.7306H79.9806V99.0602V-16.7266Z" fill="black" stroke="black" stroke-width="0.5"/>
<path d="M150.898 -16.7266V-16.9766H150.648H145.58H145.33V-16.7266V99.0602V99.3102H145.58H150.648H150.898V99.0602V-16.7266Z" fill="black" stroke="black" stroke-width="0.5"/>
<path d="M175.76 -16.7285V-16.9785H175.51H172.979H172.729V-16.7285V99.0582V99.3082H172.979H175.51H175.76V99.0582V-16.7285Z" fill="black" stroke="black" stroke-width="0.5"/>
<path d="M165.78 -16.7266V-16.9766H165.53H164.771H164.521V-16.7266V99.0602V99.3102H164.771H165.53H165.78V99.0602V-16.7266Z" fill="black" stroke="black" stroke-width="0.5"/>
<path d="M157.256 -16.7266V-16.9766H157.006H156.248H155.998V-16.7266V99.0602V99.3102H156.248H157.006H157.256V99.0602V-16.7266Z" fill="black" stroke="black" stroke-width="0.5"/>
<path d="M26.5645 -16.7266V-16.9766H26.3145H25.0488H24.7988V-16.7266V99.0602V99.3102H25.0488H26.3145H26.5645V99.0602V-16.7266Z" fill="black" stroke="black" stroke-width="0.5"/>
<path d="M38.2564 -16.7266V-16.9766H38.0064H37.248H36.998V-16.7266V99.0602V99.3102H37.248H38.0064H38.2564V99.0602V-16.7266Z" fill="black" stroke="black" stroke-width="0.5"/>
<path d="M32.2838 -16.7266V-16.9766H32.0338H31.2754H31.0254V-16.7266V99.0602V99.3102H31.2754H32.0338H32.2838V99.0602V-16.7266Z" fill="black" stroke="black" stroke-width="0.5"/>
<path d="M61.5298 -16.7266V-16.9766H61.2798H60.5215H60.2715V-16.7266V99.0602V99.3102H60.5215H61.2798H61.5298V99.0602V-16.7266Z" fill="black" stroke="black" stroke-width="0.5"/>
<path d="M68.5176 -16.7285V-16.9785H68.2676H67.002H66.752V-16.7285V99.0582V99.3082H67.002H68.2676H68.5176V99.0582V-16.7285Z" fill="black" stroke="black" stroke-width="0.5"/>
<path d="M82.9166 -16.7266V-16.9766H82.6666H81.9082H81.6582V-16.7266V99.0602V99.3102H81.9082H82.6666H82.9166V99.0602V-16.7266Z" fill="black" stroke="black" stroke-width="0.5"/>
<path d="M86.5372 -16.7266V-16.9766H86.2872H85.0215H84.7715V-16.7266V99.0602V99.3102H85.0215H86.2872H86.5372V99.0602V-16.7266Z" fill="black" stroke="black" stroke-width="0.5"/>
<path d="M55.5533 -16.7285V-16.9785H55.3033H54.5449H54.2949V-16.7285V99.0582V99.3082H54.5449H55.3033H55.5533V99.0582V-16.7285Z" fill="black" stroke="black" stroke-width="0.5"/>
<path d="M43.1739 -16.7266V-16.9766H42.9239H40.4082H40.1582V-16.7266V99.0602V99.3102H40.4082H42.9239H43.1739V99.0602V-16.7266Z" fill="black" stroke="black" stroke-width="0.5"/>
<path d="M20.295 -16.7266V-16.9766H20.045H18.7793H18.5293V-16.7266V99.0602V99.3102H18.7793H20.045H20.295V99.0602V-16.7266Z" fill="black" stroke="black" stroke-width="0.5"/>
<path d="M15.2203 -16.7285V-16.9785H14.9703H13.1973H12.9473V-16.7285V99.0582V99.3082H13.1973H14.9703H15.2203V99.0582V-16.7285Z" fill="black" stroke="black" stroke-width="0.5"/>
<path d="M204.264 -16.7285V-16.9785H204.014H201.482H201.232V-16.7285V99.0582V99.3082H201.482H204.014H204.264V99.0582V-16.7285Z" fill="black" stroke="black" stroke-width="0.5"/>
<path d="M98.3887 -16.7266V-16.9766H98.1387H96.873H96.623V-16.7266V99.0602V99.3102H96.873H98.1387H98.3887V99.0602V-16.7266Z" fill="black" stroke="black" stroke-width="0.5"/>
<path d="M104.553 -16.7266V-16.9766H104.303H103.037H102.787V-16.7266V99.0602V99.3102H103.037H104.303H104.553V99.0602V-16.7266Z" fill="black" stroke="black" stroke-width="0.5"/>
<path d="M120.399 -16.7266V-16.9766H120.149H117.869H117.619V-16.7266V99.0602V99.3102H117.869H120.149H120.399V99.0602V-16.7266Z" fill="black" stroke="black" stroke-width="0.5"/>
<path d="M128.915 -16.7266V-16.9766H128.665H126.385H126.135V-16.7266V99.0602V99.3102H126.385H128.665H128.915V99.0602V-16.7266Z" fill="black" stroke="black" stroke-width="0.5"/>
<path d="M124.154 -16.7266V-16.9766H123.904H122.639H122.389V-16.7266V99.0602V99.3102H122.639H123.904H124.154V99.0602V-16.7266Z" fill="black" stroke="black" stroke-width="0.5"/>
<path d="M109.345 -16.7266V-16.9766H109.095H108.588H108.338V-16.7266V99.0602V99.3102H108.588H109.095H109.345V99.0602V-16.7266Z" fill="black" stroke="black" stroke-width="0.5"/>
<path d="M134.068 -16.7266V-16.9766H133.818H133.311H133.061V-16.7266V99.0602V99.3102H133.311H133.818H134.068V99.0602V-16.7266Z" fill="black" stroke="black" stroke-width="0.5"/>
<path d="M138.326 -16.7285V-16.9785H138.076H137.568H137.318V-16.7285V99.0582V99.3082H137.568H138.076H138.326V99.0582V-16.7285Z" fill="black" stroke="black" stroke-width="0.5"/>
<path d="M159.966 -16.7266V-16.9766H159.716H159.209H158.959V-16.7266V99.0602V99.3102H159.209H159.716H159.966V99.0602V-16.7266Z" fill="black" stroke="black" stroke-width="0.5"/>
<path d="M169.865 -16.7266V-16.9766H169.615H168.35H168.1V-16.7266V99.0602V99.3102H168.35H169.615H169.865V99.0602V-16.7266Z" fill="black" stroke="black" stroke-width="0.5"/>
<path d="M91.4122 -16.7285V-16.9785H91.1622H88.6309H88.3809V-16.7285V99.0582V99.3082H88.6309H91.1622H91.4122V99.0582V-16.7285Z" fill="black" stroke="black" stroke-width="0.5"/>
<path d="M230.174 -16.7266V-16.9766H229.924H227.393H227.143V-16.7266V99.0602V99.3102H227.393H229.924H230.174V99.0602V-16.7266Z" fill="black" stroke="black" stroke-width="0.5"/>
<path d="M250.236 -16.7285V-16.9785H249.986H247.455H247.205V-16.7285V99.0582V99.3082H247.455H249.986H250.236V99.0582V-16.7285Z" fill="black" stroke="black" stroke-width="0.5"/>
<path d="M244.381 -16.7266V-16.9766H244.131H241.6H241.35V-16.7266V99.0602V99.3102H241.6H244.131H244.381V99.0602V-16.7266Z" fill="black" stroke="black" stroke-width="0.5"/>
<path d="M257.694 -16.7285V-16.9785H257.444H256.686H256.436V-16.7285V99.0582V99.3082H256.686H257.444H257.694V99.0582V-16.7285Z" fill="black" stroke="black" stroke-width="0.5"/>
<path d="M261.682 -16.7266V-16.9766H261.432H260.674H260.424V-16.7266V99.0602V99.3102H260.674H261.432H261.682V99.0602V-16.7266Z" fill="black" stroke="black" stroke-width="0.5"/>
<path d="M267.475 -16.7285V-16.9785H267.225H264.693H264.443V-16.7285V99.0582V99.3082H264.693H267.225H267.475V99.0582V-16.7285Z" fill="black" stroke="black" stroke-width="0.5"/>
<path d="M274.811 -16.7266V-16.9766H274.561H273.295H273.045V-16.7266V99.0602V99.3102H273.295H274.561H274.811V99.0602V-16.7266Z" fill="black" stroke="black" stroke-width="0.5"/>
<path d="M285.029 -16.7266V-16.9766H284.779H283.514H283.264V-16.7266V99.0602V99.3102H283.514H284.779H285.029V99.0602V-16.7266Z" fill="black" stroke="black" stroke-width="0.5"/>
<path d="M304.846 -16.7266V-16.9766H304.596H302.064H301.814V-16.7266V99.0602V99.3102H302.064H304.596H304.846V99.0602V-16.7266Z" fill="black" stroke="black" stroke-width="0.5"/>
<path d="M296.887 -16.7285V-16.9785H296.637H292.076H291.826V-16.7285V99.0582V99.3082H292.076H296.637H296.887V99.0582V-16.7285Z" fill="black" stroke="black" stroke-width="0.5"/>
<path d="M345.1 -16.7266V-16.9766H344.85H342.318H342.068V-16.7266V99.0602V99.3102H342.318H344.85H345.1V99.0602V-16.7266Z" fill="black" stroke="black" stroke-width="0.5"/>
<path d="M375.699 -16.7285V-16.9785H375.449H370.889H370.639V-16.7285V99.0582V99.3082H370.889H375.449H375.699V99.0582V-16.7285Z" fill="black" stroke="black" stroke-width="0.5"/>
<path d="M322.287 -16.7266V-16.9766H322.037H320.771H320.521V-16.7266V99.0602V99.3102H320.771H322.037H322.287V99.0602V-16.7266Z" fill="black" stroke="black" stroke-width="0.5"/>
<path d="M333.987 -16.7266V-16.9766H333.737H332.979H332.729V-16.7266V99.0602V99.3102H332.979H333.737H333.987V99.0602V-16.7266Z" fill="black" stroke="black" stroke-width="0.5"/>
<path d="M328.01 -16.7266V-16.9766H327.76H327.002H326.752V-16.7266V99.0602V99.3102H327.002H327.76H328.01V99.0602V-16.7266Z" fill="black" stroke="black" stroke-width="0.5"/>
<path d="M357.264 -16.7266V-16.9766H357.014H356.256H356.006V-16.7266V99.0602V99.3102H356.256H357.014H357.264V99.0602V-16.7266Z" fill="black" stroke="black" stroke-width="0.5"/>
<path d="M368.897 -16.7285V-16.9785H368.647H367.889H367.639V-16.7285V99.0582V99.3082H367.889H368.647H368.897V99.0582V-16.7285Z" fill="black" stroke="black" stroke-width="0.5"/>
<path d="M378.928 -16.7266V-16.9766H378.678H377.92H377.67V-16.7266V99.0602V99.3102H377.92H378.678H378.928V99.0602V-16.7266Z" fill="black" stroke="black" stroke-width="0.5"/>
<path d="M364.244 -16.7266V-16.9766H363.994H362.729H362.479V-16.7266V99.0602V99.3102H362.729H363.994H364.244V99.0602V-16.7266Z" fill="black" stroke="black" stroke-width="0.5"/>
<path d="M351.284 -16.7266V-16.9766H351.034H350.275H350.025V-16.7266V99.0602V99.3102H350.275H351.034H351.284V99.0602V-16.7266Z" fill="black" stroke="black" stroke-width="0.5"/>
<path d="M316.014 -16.7285V-16.9785H315.764H314.498H314.248V-16.7285V99.0582V99.3082H314.498H315.764H316.014V99.0582V-16.7285Z" fill="black" stroke="black" stroke-width="0.5"/>
<path d="M310.943 -16.7266V-16.9766H310.693H308.92H308.67V-16.7266V99.0602V99.3102H308.92H310.693H310.943V99.0602V-16.7266Z" fill="black" stroke="black" stroke-width="0.5"/>
<path d="M394.115 -16.7285V-16.9785H393.865H392.6H392.35V-16.7285V99.0582V99.3082H392.6H393.865H394.115V99.0582V-16.7285Z" fill="black" stroke="black" stroke-width="0.5"/>
<path d="M400.283 -16.7266V-16.9766H400.033H398.768H398.518V-16.7266V99.0602V99.3102H398.768H400.033H400.283V99.0602V-16.7266Z" fill="black" stroke="black" stroke-width="0.5"/>
<path d="M416.126 -16.7285V-16.9785H415.876H413.596H413.346V-16.7285V99.0582V99.3082H413.596H415.876H416.126V99.0582V-16.7285Z" fill="black" stroke="black" stroke-width="0.5"/>
<path d="M425.785 -16.7285V-16.9785H425.535H420.975H420.725V-16.7285V99.0582V99.3082H420.975H425.535H425.785V99.0582V-16.7285Z" fill="black" stroke="black" stroke-width="0.5"/>
<path d="M410.537 -16.7266V-16.9766H410.287H409.021H408.771V-16.7266V99.0602V99.3102H409.021H410.287H410.537V99.0602V-16.7266Z" fill="black" stroke="black" stroke-width="0.5"/>
<path d="M405.068 -16.7285V-16.9785H404.818H404.311H404.061V-16.7285V99.0582V99.3082H404.311H404.818H405.068V99.0582V-16.7285Z" fill="black" stroke="black" stroke-width="0.5"/>
<path d="M382.466 -16.7266V-16.9766H382.216H381.709H381.459V-16.7266V99.0602V99.3102H381.709H382.216H382.466V99.0602V-16.7266Z" fill="black" stroke="black" stroke-width="0.5"/>
<path d="M429.791 -16.7266V-16.9766H429.541H429.033H428.783V-16.7266V99.0602V99.3102H429.033H429.541H429.791V99.0602V-16.7266Z" fill="black" stroke="black" stroke-width="0.5"/>
<path d="M434.052 -16.7266V-16.9766H433.802H433.295H433.045V-16.7266V99.0602V99.3102H433.295H433.802H434.052V99.0602V-16.7266Z" fill="black" stroke="black" stroke-width="0.5"/>
<path d="M387.147 -16.7266V-16.9766H386.897H384.365H384.115V-16.7266V99.0602V99.3102H384.365H386.897H387.147V99.0602V-16.7266Z" fill="black" stroke="black" stroke-width="0.5"/>
</g>
<defs>
<clipPath id="clip0_849_42">
<rect width="433" height="99" fill="white" transform="translate(0.740234 0.0605469)"/>
</clipPath>
</defs>
</svg>
