<svg width="838" height="44" viewBox="0 0 838 44" fill="none" xmlns="http://www.w3.org/2000/svg">
<path d="M558.938 7.90117C558.001 7.90117 557.197 7.58301 556.527 6.94669C555.857 6.31038 555.522 5.5401 555.522 4.63586C555.522 3.73162 555.857 2.96134 556.527 2.32502C557.197 1.65522 558.001 1.32031 558.938 1.32031C559.843 1.32031 560.63 1.65522 561.299 2.32502C561.969 2.96134 562.304 3.73162 562.304 4.63586C562.304 5.5401 561.969 6.31038 561.299 6.94669C560.63 7.58301 559.843 7.90117 558.938 7.90117ZM558.938 16.3407C558.001 16.3407 557.197 16.0226 556.527 15.3863C555.857 14.7165 555.522 13.9294 555.522 13.0252C555.522 12.121 555.857 11.3507 556.527 10.7144C557.197 10.078 558.001 9.75989 558.938 9.75989C559.843 9.75989 560.63 10.078 561.299 10.7144C561.969 11.3507 562.304 12.121 562.304 13.0252C562.304 13.9294 561.969 14.7165 561.299 15.3863C560.63 16.0226 559.843 16.3407 558.938 16.3407ZM541.707 7.90117C540.77 7.90117 539.966 7.58301 539.296 6.94669C538.66 6.31038 538.342 5.5401 538.342 4.63586C538.342 3.73162 538.66 2.96134 539.296 2.32502C539.966 1.65522 540.77 1.32031 541.707 1.32031C542.645 1.32031 543.432 1.65522 544.069 2.32502C544.738 2.96134 545.073 3.73162 545.073 4.63586C545.073 5.5401 544.738 6.31038 544.069 6.94669C543.432 7.58301 542.645 7.90117 541.707 7.90117ZM558.938 24.7301C558.001 24.7301 557.197 24.4119 556.527 23.7756C555.857 23.1393 555.522 22.3523 555.522 21.4145C555.522 20.5103 555.857 19.74 556.527 19.1037C557.197 18.4674 558.001 18.1492 558.938 18.1492C559.843 18.1492 560.63 18.4674 561.299 19.1037C561.969 19.74 562.304 20.5103 562.304 21.4145C562.304 22.3523 561.969 23.1393 561.299 23.7756C560.63 24.4119 559.843 24.7301 558.938 24.7301ZM541.707 16.3407C540.77 16.3407 539.966 16.0226 539.296 15.3863C538.66 14.7165 538.342 13.9294 538.342 13.0252C538.342 12.121 538.66 11.3507 539.296 10.7144C539.966 10.078 540.77 9.75989 541.707 9.75989C542.645 9.75989 543.432 10.078 544.069 10.7144C544.738 11.3507 545.073 12.121 545.073 13.0252C545.073 13.9294 544.738 14.7165 544.069 15.3863C543.432 16.0226 542.645 16.3407 541.707 16.3407ZM558.938 33.1194C558.001 33.1194 557.197 32.8013 556.527 32.1649C555.857 31.5286 555.522 30.7584 555.522 29.8541C555.522 28.9164 555.857 28.1294 556.527 27.493C557.197 26.8567 558.001 26.5386 558.938 26.5386C559.843 26.5386 560.63 26.8567 561.299 27.493C561.969 28.1294 562.304 28.9164 562.304 29.8541C562.304 30.7584 561.969 31.5286 561.299 32.1649C560.63 32.8013 559.843 33.1194 558.938 33.1194ZM541.707 24.7301C540.77 24.7301 539.966 24.4119 539.296 23.7756C538.66 23.1393 538.342 22.3523 538.342 21.4145C538.342 20.5103 538.66 19.74 539.296 19.1037C539.966 18.4674 540.77 18.1492 541.707 18.1492C542.645 18.1492 543.432 18.4674 544.069 19.1037C544.738 19.74 545.073 20.5103 545.073 21.4145C545.073 22.3523 544.738 23.1393 544.069 23.7756C543.432 24.4119 542.645 24.7301 541.707 24.7301ZM533.067 16.3407C532.129 16.3407 531.325 16.0226 530.656 15.3863C530.019 14.7165 529.701 13.9294 529.701 13.0252C529.701 12.121 530.019 11.3507 530.656 10.7144C531.325 10.078 532.129 9.75989 533.067 9.75989C534.005 9.75989 534.792 10.078 535.428 10.7144C536.098 11.3507 536.433 12.121 536.433 13.0252C536.433 13.9294 536.098 14.7165 535.428 15.3863C534.792 16.0226 534.005 16.3407 533.067 16.3407ZM541.707 33.1194C540.77 33.1194 539.966 32.8013 539.296 32.1649C538.66 31.5286 538.342 30.7584 538.342 29.8541C538.342 28.9164 538.66 28.1294 539.296 27.493C539.966 26.8567 540.77 26.5386 541.707 26.5386C542.645 26.5386 543.432 26.8567 544.069 27.493C544.738 28.1294 545.073 28.9164 545.073 29.8541C545.073 30.7584 544.738 31.5286 544.069 32.1649C543.432 32.8013 542.645 33.1194 541.707 33.1194ZM550.298 41.5088C549.36 41.5088 548.556 41.1906 547.886 40.5543C547.25 39.918 546.932 39.1477 546.932 38.2435C546.932 37.3392 547.25 36.5689 547.886 35.9326C548.556 35.2628 549.36 34.9279 550.298 34.9279C551.235 34.9279 552.023 35.2628 552.659 35.9326C553.329 36.5689 553.664 37.3392 553.664 38.2435C553.664 39.1477 553.329 39.918 552.659 40.5543C552.023 41.1906 551.235 41.5088 550.298 41.5088ZM533.067 24.7301C532.129 24.7301 531.325 24.4119 530.656 23.7756C530.019 23.1393 529.701 22.3523 529.701 21.4145C529.701 20.5103 530.019 19.74 530.656 19.1037C531.325 18.4674 532.129 18.1492 533.067 18.1492C534.005 18.1492 534.792 18.4674 535.428 19.1037C536.098 19.74 536.433 20.5103 536.433 21.4145C536.433 22.3523 536.098 23.1393 535.428 23.7756C534.792 24.4119 534.005 24.7301 533.067 24.7301ZM541.707 41.5088C540.77 41.5088 539.966 41.1906 539.296 40.5543C538.66 39.918 538.342 39.1477 538.342 38.2435C538.342 37.3392 538.66 36.5689 539.296 35.9326C539.966 35.2628 540.77 34.9279 541.707 34.9279C542.645 34.9279 543.432 35.2628 544.069 35.9326C544.738 36.5689 545.073 37.3392 545.073 38.2435C545.073 39.1477 544.738 39.918 544.069 40.5543C543.432 41.1906 542.645 41.5088 541.707 41.5088ZM533.067 33.1194C532.129 33.1194 531.325 32.8013 530.656 32.1649C530.019 31.5286 529.701 30.7584 529.701 29.8541C529.701 28.9164 530.019 28.1294 530.656 27.493C531.325 26.8567 532.129 26.5386 533.067 26.5386C534.005 26.5386 534.792 26.8567 535.428 27.493C536.098 28.1294 536.433 28.9164 536.433 29.8541C536.433 30.7584 536.098 31.5286 535.428 32.1649C534.792 32.8013 534.005 33.1194 533.067 33.1194ZM533.067 41.5088C532.129 41.5088 531.325 41.1906 530.656 40.5543C530.019 39.918 529.701 39.1477 529.701 38.2435C529.701 37.3392 530.019 36.5689 530.656 35.9326C531.325 35.2628 532.129 34.9279 533.067 34.9279C534.005 34.9279 534.792 35.2628 535.428 35.9326C536.098 36.5689 536.433 37.3392 536.433 38.2435C536.433 39.1477 536.098 39.918 535.428 40.5543C534.792 41.1906 534.005 41.5088 533.067 41.5088Z" fill="black"/>
<path d="M516.204 16.3407C515.266 16.3407 514.462 16.0226 513.793 15.3863C513.156 14.7165 512.838 13.9294 512.838 13.0252C512.838 12.121 513.156 11.3507 513.793 10.7144C514.462 10.078 515.266 9.75989 516.204 9.75989C517.108 9.75989 517.895 10.078 518.565 10.7144C519.235 11.3507 519.57 12.121 519.57 13.0252C519.57 13.9294 519.235 14.7165 518.565 15.3863C517.895 16.0226 517.108 16.3407 516.204 16.3407ZM507.563 7.90117C506.626 7.90117 505.822 7.58301 505.152 6.94669C504.516 6.31038 504.198 5.5401 504.198 4.63586C504.198 3.73162 504.516 2.96134 505.152 2.32502C505.822 1.65522 506.626 1.32031 507.563 1.32031C508.501 1.32031 509.288 1.65522 509.924 2.32502C510.594 2.96134 510.929 3.73162 510.929 4.63586C510.929 5.5401 510.594 6.31038 509.924 6.94669C509.288 7.58301 508.501 7.90117 507.563 7.90117ZM516.204 24.7301C515.266 24.7301 514.462 24.4119 513.793 23.7756C513.156 23.1058 512.838 22.3188 512.838 21.4145C512.838 20.5103 513.156 19.74 513.793 19.1037C514.462 18.4674 515.266 18.1492 516.204 18.1492C517.108 18.1492 517.895 18.4674 518.565 19.1037C519.235 19.74 519.57 20.5103 519.57 21.4145C519.57 22.3188 519.235 23.1058 518.565 23.7756C517.895 24.4119 517.108 24.7301 516.204 24.7301ZM498.973 7.90117C498.035 7.90117 497.232 7.58301 496.562 6.94669C495.925 6.31038 495.607 5.5401 495.607 4.63586C495.607 3.73162 495.925 2.96134 496.562 2.32502C497.232 1.65522 498.035 1.32031 498.973 1.32031C499.911 1.32031 500.698 1.65522 501.334 2.32502C502.004 2.96134 502.339 3.73162 502.339 4.63586C502.339 5.5401 502.004 6.31038 501.334 6.94669C500.698 7.58301 499.911 7.90117 498.973 7.90117ZM516.204 33.1194C515.266 33.1194 514.462 32.8013 513.793 32.1649C513.156 31.5286 512.838 30.7584 512.838 29.8541C512.838 28.9164 513.156 28.1294 513.793 27.493C514.462 26.8567 515.266 26.5386 516.204 26.5386C517.108 26.5386 517.895 26.8567 518.565 27.493C519.235 28.1294 519.57 28.9164 519.57 29.8541C519.57 30.7584 519.235 31.5286 518.565 32.1649C517.895 32.8013 517.108 33.1194 516.204 33.1194ZM498.973 16.3407C498.035 16.3407 497.232 16.0226 496.562 15.3863C495.925 14.7165 495.607 13.9294 495.607 13.0252C495.607 12.121 495.925 11.3507 496.562 10.7144C497.232 10.078 498.035 9.75989 498.973 9.75989C499.911 9.75989 500.698 10.078 501.334 10.7144C502.004 11.3507 502.339 12.121 502.339 13.0252C502.339 13.9294 502.004 14.7165 501.334 15.3863C500.698 16.0226 499.911 16.3407 498.973 16.3407ZM498.973 24.7301C498.035 24.7301 497.232 24.4119 496.562 23.7756C495.925 23.1058 495.607 22.3188 495.607 21.4145C495.607 20.5103 495.925 19.74 496.562 19.1037C497.232 18.4674 498.035 18.1492 498.973 18.1492C499.911 18.1492 500.698 18.4674 501.334 19.1037C502.004 19.74 502.339 20.5103 502.339 21.4145C502.339 22.3188 502.004 23.1058 501.334 23.7756C500.698 24.4119 499.911 24.7301 498.973 24.7301ZM490.333 16.3407C489.428 16.3407 488.641 16.0226 487.972 15.3863C487.302 14.7165 486.967 13.9294 486.967 13.0252C486.967 12.121 487.302 11.3507 487.972 10.7144C488.641 10.078 489.428 9.75989 490.333 9.75989C491.27 9.75989 492.074 10.078 492.744 10.7144C493.414 11.3507 493.749 12.121 493.749 13.0252C493.749 13.9294 493.414 14.7165 492.744 15.3863C492.074 16.0226 491.27 16.3407 490.333 16.3407ZM498.973 33.1194C498.035 33.1194 497.232 32.8013 496.562 32.1649C495.925 31.5286 495.607 30.7584 495.607 29.8541C495.607 28.9164 495.925 28.1294 496.562 27.493C497.232 26.8567 498.035 26.5386 498.973 26.5386C499.911 26.5386 500.698 26.8567 501.334 27.493C502.004 28.1294 502.339 28.9164 502.339 29.8541C502.339 30.7584 502.004 31.5286 501.334 32.1649C500.698 32.8013 499.911 33.1194 498.973 33.1194ZM507.563 41.5088C506.626 41.5088 505.822 41.1906 505.152 40.5543C504.516 39.918 504.198 39.1477 504.198 38.2435C504.198 37.3392 504.516 36.5689 505.152 35.9326C505.822 35.2628 506.626 34.9279 507.563 34.9279C508.501 34.9279 509.288 35.2628 509.924 35.9326C510.594 36.5689 510.929 37.3392 510.929 38.2435C510.929 39.1477 510.594 39.918 509.924 40.5543C509.288 41.1906 508.501 41.5088 507.563 41.5088ZM490.333 24.7301C489.428 24.7301 488.641 24.4119 487.972 23.7756C487.302 23.1058 486.967 22.3188 486.967 21.4145C486.967 20.5103 487.302 19.74 487.972 19.1037C488.641 18.4674 489.428 18.1492 490.333 18.1492C491.27 18.1492 492.074 18.4674 492.744 19.1037C493.414 19.74 493.749 20.5103 493.749 21.4145C493.749 22.3188 493.414 23.1058 492.744 23.7756C492.074 24.4119 491.27 24.7301 490.333 24.7301ZM498.973 41.5088C498.035 41.5088 497.232 41.1906 496.562 40.5543C495.925 39.918 495.607 39.1477 495.607 38.2435C495.607 37.3392 495.925 36.5689 496.562 35.9326C497.232 35.2628 498.035 34.9279 498.973 34.9279C499.911 34.9279 500.698 35.2628 501.334 35.9326C502.004 36.5689 502.339 37.3392 502.339 38.2435C502.339 39.1477 502.004 39.918 501.334 40.5543C500.698 41.1906 499.911 41.5088 498.973 41.5088ZM490.333 33.1194C489.428 33.1194 488.641 32.8013 487.972 32.1649C487.302 31.5286 486.967 30.7584 486.967 29.8541C486.967 28.9164 487.302 28.1294 487.972 27.493C488.641 26.8567 489.428 26.5386 490.333 26.5386C491.27 26.5386 492.074 26.8567 492.744 27.493C493.414 28.1294 493.749 28.9164 493.749 29.8541C493.749 30.7584 493.414 31.5286 492.744 32.1649C492.074 32.8013 491.27 33.1194 490.333 33.1194Z" fill="black"/>
<path d="M473.622 7.95195C472.684 7.95195 471.88 7.63379 471.211 6.99748C470.574 6.32767 470.256 5.54065 470.256 4.6364C470.256 3.73216 470.574 2.96189 471.211 2.32557C471.88 1.68925 472.684 1.37109 473.622 1.37109C474.526 1.37109 475.313 1.68925 475.983 2.32557C476.653 2.96189 476.988 3.73216 476.988 4.6364C476.988 5.54065 476.653 6.32767 475.983 6.99748C475.313 7.63379 474.526 7.95195 473.622 7.95195ZM473.622 16.3413C472.684 16.3413 471.88 16.0231 471.211 15.3868C470.574 14.7505 470.256 13.9635 470.256 13.0257C470.256 12.1215 470.574 11.3512 471.211 10.7149C471.88 10.0786 472.684 9.76043 473.622 9.76043C474.526 9.76043 475.313 10.0786 475.983 10.7149C476.653 11.3512 476.988 12.1215 476.988 13.0257C476.988 13.9635 476.653 14.7505 475.983 15.3868C475.313 16.0231 474.526 16.3413 473.622 16.3413ZM456.391 7.95195C455.453 7.95195 454.65 7.63379 453.98 6.99748C453.343 6.32767 453.025 5.54065 453.025 4.6364C453.025 3.73216 453.343 2.96189 453.98 2.32557C454.65 1.68925 455.453 1.37109 456.391 1.37109C457.329 1.37109 458.116 1.68925 458.752 2.32557C459.422 2.96189 459.757 3.73216 459.757 4.6364C459.757 5.54065 459.422 6.32767 458.752 6.99748C458.116 7.63379 457.329 7.95195 456.391 7.95195ZM473.622 24.7306C472.684 24.7306 471.88 24.4125 471.211 23.7762C470.574 23.1398 470.256 22.3696 470.256 21.4653C470.256 20.5611 470.574 19.7908 471.211 19.1545C471.88 18.4847 472.684 18.1498 473.622 18.1498C474.526 18.1498 475.313 18.4847 475.983 19.1545C476.653 19.7908 476.988 20.5611 476.988 21.4653C476.988 22.3696 476.653 23.1398 475.983 23.7762C475.313 24.4125 474.526 24.7306 473.622 24.7306ZM456.391 16.3413C455.453 16.3413 454.65 16.0231 453.98 15.3868C453.343 14.7505 453.025 13.9635 453.025 13.0257C453.025 12.1215 453.343 11.3512 453.98 10.7149C454.65 10.0786 455.453 9.76043 456.391 9.76043C457.329 9.76043 458.116 10.0786 458.752 10.7149C459.422 11.3512 459.757 12.1215 459.757 13.0257C459.757 13.9635 459.422 14.7505 458.752 15.3868C458.116 16.0231 457.329 16.3413 456.391 16.3413ZM464.981 24.7306C464.044 24.7306 463.24 24.4125 462.57 23.7762C461.934 23.1398 461.616 22.3696 461.616 21.4653C461.616 20.5611 461.934 19.7908 462.57 19.1545C463.24 18.4847 464.044 18.1498 464.981 18.1498C465.919 18.1498 466.706 18.4847 467.342 19.1545C468.012 19.7908 468.347 20.5611 468.347 21.4653C468.347 22.3696 468.012 23.1398 467.342 23.7762C466.706 24.4125 465.919 24.7306 464.981 24.7306ZM456.391 24.7306C455.453 24.7306 454.65 24.4125 453.98 23.7762C453.343 23.1398 453.025 22.3696 453.025 21.4653C453.025 20.5611 453.343 19.7908 453.98 19.1545C454.65 18.4847 455.453 18.1498 456.391 18.1498C457.329 18.1498 458.116 18.4847 458.752 19.1545C459.422 19.7908 459.757 20.5611 459.757 21.4653C459.757 22.3696 459.422 23.1398 458.752 23.7762C458.116 24.4125 457.329 24.7306 456.391 24.7306ZM447.751 16.3413C446.846 16.3413 446.059 16.0231 445.389 15.3868C444.72 14.7505 444.385 13.9635 444.385 13.0257C444.385 12.1215 444.72 11.3512 445.389 10.7149C446.059 10.0786 446.846 9.76043 447.751 9.76043C448.688 9.76043 449.492 10.0786 450.162 10.7149C450.832 11.3512 451.167 12.1215 451.167 13.0257C451.167 13.9635 450.832 14.7505 450.162 15.3868C449.492 16.0231 448.688 16.3413 447.751 16.3413ZM464.981 33.12C464.044 33.12 463.24 32.8018 462.57 32.1655C461.934 31.5292 461.616 30.7589 461.616 29.8547C461.616 28.9504 461.934 28.1801 462.57 27.5438C463.24 26.874 464.044 26.5391 464.981 26.5391C465.919 26.5391 466.706 26.874 467.342 27.5438C468.012 28.1801 468.347 28.9504 468.347 29.8547C468.347 30.7589 468.012 31.5292 467.342 32.1655C466.706 32.8018 465.919 33.12 464.981 33.12ZM447.751 24.7306C446.846 24.7306 446.059 24.4125 445.389 23.7762C444.72 23.1398 444.385 22.3696 444.385 21.4653C444.385 20.5611 444.72 19.7908 445.389 19.1545C446.059 18.4847 446.846 18.1498 447.751 18.1498C448.688 18.1498 449.492 18.4847 450.162 19.1545C450.832 19.7908 451.167 20.5611 451.167 21.4653C451.167 22.3696 450.832 23.1398 450.162 23.7762C449.492 24.4125 448.688 24.7306 447.751 24.7306ZM464.981 41.5595C464.044 41.5595 463.24 41.2414 462.57 40.6051C461.934 39.9353 461.616 39.1482 461.616 38.244C461.616 37.3398 461.934 36.5695 462.57 35.9332C463.24 35.2968 464.044 34.9787 464.981 34.9787C465.919 34.9787 466.706 35.2968 467.342 35.9332C468.012 36.5695 468.347 37.3398 468.347 38.244C468.347 39.1482 468.012 39.9353 467.342 40.6051C466.706 41.2414 465.919 41.5595 464.981 41.5595Z" fill="black"/>
<path d="M409.555 7.95195C408.618 7.95195 407.814 7.63379 407.144 6.99748C406.474 6.32767 406.139 5.54065 406.139 4.6364C406.139 3.73216 406.474 2.96189 407.144 2.32557C407.814 1.68925 408.618 1.37109 409.555 1.37109C410.46 1.37109 411.247 1.68925 411.917 2.32557C412.586 2.96189 412.921 3.73216 412.921 4.6364C412.921 5.54065 412.586 6.32767 411.917 6.99748C411.247 7.63379 410.46 7.95195 409.555 7.95195ZM409.555 16.3413C408.618 16.3413 407.814 16.0231 407.144 15.3868C406.474 14.7505 406.139 13.9635 406.139 13.0257C406.139 12.1215 406.474 11.3512 407.144 10.7149C407.814 10.0786 408.618 9.76043 409.555 9.76043C410.46 9.76043 411.247 10.0786 411.917 10.7149C412.586 11.3512 412.921 12.1215 412.921 13.0257C412.921 13.9635 412.586 14.7505 411.917 15.3868C411.247 16.0231 410.46 16.3413 409.555 16.3413ZM392.325 7.95195C391.387 7.95195 390.583 7.63379 389.913 6.99748C389.277 6.32767 388.959 5.54065 388.959 4.6364C388.959 3.73216 389.277 2.96189 389.913 2.32557C390.583 1.68925 391.387 1.37109 392.325 1.37109C393.262 1.37109 394.049 1.68925 394.686 2.32557C395.356 2.96189 395.69 3.73216 395.69 4.6364C395.69 5.54065 395.356 6.32767 394.686 6.99748C394.049 7.63379 393.262 7.95195 392.325 7.95195ZM392.325 16.3413C391.387 16.3413 390.583 16.0231 389.913 15.3868C389.277 14.7505 388.959 13.9635 388.959 13.0257C388.959 12.1215 389.277 11.3512 389.913 10.7149C390.583 10.0786 391.387 9.76043 392.325 9.76043C393.262 9.76043 394.049 10.0786 394.686 10.7149C395.356 11.3512 395.69 12.1215 395.69 13.0257C395.69 13.9635 395.356 14.7505 394.686 15.3868C394.049 16.0231 393.262 16.3413 392.325 16.3413ZM400.915 24.7306C399.977 24.7306 399.173 24.4125 398.504 23.7762C397.867 23.1398 397.549 22.3696 397.549 21.4653C397.549 20.5611 397.867 19.7908 398.504 19.1545C399.173 18.4847 399.977 18.1498 400.915 18.1498C401.853 18.1498 402.64 18.4847 403.276 19.1545C403.946 19.7908 404.281 20.5611 404.281 21.4653C404.281 22.3696 403.946 23.1398 403.276 23.7762C402.64 24.4125 401.853 24.7306 400.915 24.7306ZM409.555 33.1702C408.618 33.1702 407.814 32.852 407.144 32.2157C406.474 31.5459 406.139 30.7589 406.139 29.8547C406.139 28.9504 406.474 28.1801 407.144 27.5438C407.814 26.874 408.618 26.5391 409.555 26.5391C410.46 26.5391 411.247 26.874 411.917 27.5438C412.586 28.1801 412.921 28.9504 412.921 29.8547C412.921 30.7589 412.586 31.5459 411.917 32.2157C411.247 32.852 410.46 33.1702 409.555 33.1702ZM392.325 24.7306C391.387 24.7306 390.583 24.4125 389.913 23.7762C389.277 23.1398 388.959 22.3696 388.959 21.4653C388.959 20.5611 389.277 19.7908 389.913 19.1545C390.583 18.4847 391.387 18.1498 392.325 18.1498C393.262 18.1498 394.049 18.4847 394.686 19.1545C395.356 19.7908 395.69 20.5611 395.69 21.4653C395.69 22.3696 395.356 23.1398 394.686 23.7762C394.049 24.4125 393.262 24.7306 392.325 24.7306ZM383.684 16.3413C382.746 16.3413 381.943 16.0231 381.273 15.3868C380.637 14.7505 380.318 13.9635 380.318 13.0257C380.318 12.1215 380.637 11.3512 381.273 10.7149C381.943 10.0786 382.746 9.76043 383.684 9.76043C384.622 9.76043 385.409 10.0786 386.045 10.7149C386.715 11.3512 387.05 12.1215 387.05 13.0257C387.05 13.9635 386.715 14.7505 386.045 15.3868C385.409 16.0231 384.622 16.3413 383.684 16.3413ZM409.555 41.5595C408.618 41.5595 407.814 41.2414 407.144 40.6051C406.474 39.9353 406.139 39.1482 406.139 38.244C406.139 37.3398 406.474 36.5695 407.144 35.9332C407.814 35.2968 408.618 34.9787 409.555 34.9787C410.46 34.9787 411.247 35.2968 411.917 35.9332C412.586 36.5695 412.921 37.3398 412.921 38.244C412.921 39.1482 412.586 39.9353 411.917 40.6051C411.247 41.2414 410.46 41.5595 409.555 41.5595ZM383.684 24.7306C382.746 24.7306 381.943 24.4125 381.273 23.7762C380.637 23.1398 380.318 22.3696 380.318 21.4653C380.318 20.5611 380.637 19.7908 381.273 19.1545C381.943 18.4847 382.746 18.1498 383.684 18.1498C384.622 18.1498 385.409 18.4847 386.045 19.1545C386.715 19.7908 387.05 20.5611 387.05 21.4653C387.05 22.3696 386.715 23.1398 386.045 23.7762C385.409 24.4125 384.622 24.7306 383.684 24.7306ZM392.325 33.1702C391.387 33.1702 390.583 32.852 389.913 32.2157C389.277 31.5459 388.959 30.7589 388.959 29.8547C388.959 28.9504 389.277 28.1801 389.913 27.5438C390.583 26.874 391.387 26.5391 392.325 26.5391C393.262 26.5391 394.049 26.874 394.686 27.5438C395.356 28.1801 395.69 28.9504 395.69 29.8547C395.69 30.7589 395.356 31.5459 394.686 32.2157C394.049 32.852 393.262 33.1702 392.325 33.1702ZM392.325 41.5595C391.387 41.5595 390.583 41.2414 389.913 40.6051C389.277 39.9353 388.959 39.1482 388.959 38.244C388.959 37.3398 389.277 36.5695 389.913 35.9332C390.583 35.2968 391.387 34.9787 392.325 34.9787C393.262 34.9787 394.049 35.2968 394.686 35.9332C395.356 36.5695 395.69 37.3398 395.69 38.244C395.69 39.1482 395.356 39.9353 394.686 40.6051C394.049 41.2414 393.262 41.5595 392.325 41.5595ZM383.684 33.1702C382.746 33.1702 381.943 32.852 381.273 32.2157C380.637 31.5459 380.318 30.7589 380.318 29.8547C380.318 28.9504 380.637 28.1801 381.273 27.5438C381.943 26.874 382.746 26.5391 383.684 26.5391C384.622 26.5391 385.409 26.874 386.045 27.5438C386.715 28.1801 387.05 28.9504 387.05 29.8547C387.05 30.7589 386.715 31.5459 386.045 32.2157C385.409 32.852 384.622 33.1702 383.684 33.1702ZM383.684 41.5595C382.746 41.5595 381.943 41.2414 381.273 40.6051C380.637 39.9353 380.318 39.1482 380.318 38.244C380.318 37.3398 380.637 36.5695 381.273 35.9332C381.943 35.2968 382.746 34.9787 383.684 34.9787C384.622 34.9787 385.409 35.2968 386.045 35.9332C386.715 36.5695 387.05 37.3398 387.05 38.244C387.05 39.1482 386.715 39.9353 386.045 40.6051C385.409 41.2414 384.622 41.5595 383.684 41.5595Z" fill="black"/>
<path d="M367.935 7.95195C366.997 7.95195 366.193 7.63379 365.524 6.99748C364.887 6.36116 364.569 5.59088 364.569 4.68664C364.569 3.74891 364.887 2.96189 365.524 2.32557C366.193 1.68925 366.997 1.37109 367.935 1.37109C368.873 1.37109 369.66 1.68925 370.296 2.32557C370.966 2.96189 371.301 3.74891 371.301 4.68664C371.301 5.59088 370.966 6.36116 370.296 6.99748C369.66 7.63379 368.873 7.95195 367.935 7.95195ZM359.345 7.95195C358.407 7.95195 357.603 7.63379 356.933 6.99748C356.264 6.36116 355.929 5.59088 355.929 4.68664C355.929 3.74891 356.264 2.96189 356.933 2.32557C357.603 1.68925 358.407 1.37109 359.345 1.37109C360.249 1.37109 361.036 1.68925 361.706 2.32557C362.376 2.96189 362.71 3.74891 362.71 4.68664C362.71 5.59088 362.376 6.36116 361.706 6.99748C361.036 7.63379 360.249 7.95195 359.345 7.95195ZM350.704 7.95195C349.766 7.95195 348.963 7.63379 348.293 6.99748C347.656 6.36116 347.338 5.59088 347.338 4.68664C347.338 3.74891 347.656 2.96189 348.293 2.32557C348.963 1.68925 349.766 1.37109 350.704 1.37109C351.642 1.37109 352.429 1.68925 353.065 2.32557C353.735 2.96189 354.07 3.74891 354.07 4.68664C354.07 5.59088 353.735 6.36116 353.065 6.99748C352.429 7.63379 351.642 7.95195 350.704 7.95195ZM350.704 16.3413C349.766 16.3413 348.963 16.0231 348.293 15.3868C347.656 14.7505 347.338 13.9802 347.338 13.076C347.338 12.1717 347.656 11.4015 348.293 10.7651C348.963 10.0953 349.766 9.76043 350.704 9.76043C351.642 9.76043 352.429 10.0953 353.065 10.7651C353.735 11.4015 354.07 12.1717 354.07 13.076C354.07 13.9802 353.735 14.7505 353.065 15.3868C352.429 16.0231 351.642 16.3413 350.704 16.3413ZM350.704 24.7809C349.766 24.7809 348.963 24.4627 348.293 23.8264C347.656 23.1566 347.338 22.3696 347.338 21.4653C347.338 20.5611 347.656 19.7908 348.293 19.1545C348.963 18.5182 349.766 18.2 350.704 18.2C351.642 18.2 352.429 18.5182 353.065 19.1545C353.735 19.7908 354.07 20.5611 354.07 21.4653C354.07 22.3696 353.735 23.1566 353.065 23.8264C352.429 24.4627 351.642 24.7809 350.704 24.7809ZM367.935 41.5595C366.997 41.5595 366.193 41.2414 365.524 40.6051C364.887 39.9688 364.569 39.1985 364.569 38.2942C364.569 37.3565 364.887 36.5695 365.524 35.9332C366.193 35.2968 366.997 34.9787 367.935 34.9787C368.873 34.9787 369.66 35.2968 370.296 35.9332C370.966 36.5695 371.301 37.3565 371.301 38.2942C371.301 39.1985 370.966 39.9688 370.296 40.6051C369.66 41.2414 368.873 41.5595 367.935 41.5595ZM342.114 16.3413C341.176 16.3413 340.372 16.0231 339.703 15.3868C339.066 14.7505 338.748 13.9802 338.748 13.076C338.748 12.1717 339.066 11.4015 339.703 10.7651C340.372 10.0953 341.176 9.76043 342.114 9.76043C343.052 9.76043 343.839 10.0953 344.475 10.7651C345.145 11.4015 345.48 12.1717 345.48 13.076C345.48 13.9802 345.145 14.7505 344.475 15.3868C343.839 16.0231 343.052 16.3413 342.114 16.3413ZM359.345 41.5595C358.407 41.5595 357.603 41.2414 356.933 40.6051C356.264 39.9688 355.929 39.1985 355.929 38.2942C355.929 37.3565 356.264 36.5695 356.933 35.9332C357.603 35.2968 358.407 34.9787 359.345 34.9787C360.249 34.9787 361.036 35.2968 361.706 35.9332C362.376 36.5695 362.71 37.3565 362.71 38.2942C362.71 39.1985 362.376 39.9688 361.706 40.6051C361.036 41.2414 360.249 41.5595 359.345 41.5595ZM350.704 33.1702C349.766 33.1702 348.963 32.852 348.293 32.2157C347.656 31.5459 347.338 30.7589 347.338 29.8547C347.338 28.9504 347.656 28.1801 348.293 27.5438C348.963 26.9075 349.766 26.5893 350.704 26.5893C351.642 26.5893 352.429 26.9075 353.065 27.5438C353.735 28.1801 354.07 28.9504 354.07 29.8547C354.07 30.7589 353.735 31.5459 353.065 32.2157C352.429 32.852 351.642 33.1702 350.704 33.1702ZM342.114 24.7809C341.176 24.7809 340.372 24.4627 339.703 23.8264C339.066 23.1566 338.748 22.3696 338.748 21.4653C338.748 20.5611 339.066 19.7908 339.703 19.1545C340.372 18.5182 341.176 18.2 342.114 18.2C343.052 18.2 343.839 18.5182 344.475 19.1545C345.145 19.7908 345.48 20.5611 345.48 21.4653C345.48 22.3696 345.145 23.1566 344.475 23.8264C343.839 24.4627 343.052 24.7809 342.114 24.7809ZM350.704 41.5595C349.766 41.5595 348.963 41.2414 348.293 40.6051C347.656 39.9688 347.338 39.1985 347.338 38.2942C347.338 37.3565 347.656 36.5695 348.293 35.9332C348.963 35.2968 349.766 34.9787 350.704 34.9787C351.642 34.9787 352.429 35.2968 353.065 35.9332C353.735 36.5695 354.07 37.3565 354.07 38.2942C354.07 39.1985 353.735 39.9688 353.065 40.6051C352.429 41.2414 351.642 41.5595 350.704 41.5595ZM342.114 33.1702C341.176 33.1702 340.372 32.852 339.703 32.2157C339.066 31.5459 338.748 30.7589 338.748 29.8547C338.748 28.9504 339.066 28.1801 339.703 27.5438C340.372 26.9075 341.176 26.5893 342.114 26.5893C343.052 26.5893 343.839 26.9075 344.475 27.5438C345.145 28.1801 345.48 28.9504 345.48 29.8547C345.48 30.7589 345.145 31.5459 344.475 32.2157C343.839 32.852 343.052 33.1702 342.114 33.1702ZM342.114 41.5595C341.176 41.5595 340.372 41.2414 339.703 40.6051C339.066 39.9688 338.748 39.1985 338.748 38.2942C338.748 37.3565 339.066 36.5695 339.703 35.9332C340.372 35.2968 341.176 34.9787 342.114 34.9787C343.052 34.9787 343.839 35.2968 344.475 35.9332C345.145 36.5695 345.48 37.3565 345.48 38.2942C345.48 39.1985 345.145 39.9688 344.475 40.6051C343.839 41.2414 343.052 41.5595 342.114 41.5595Z" fill="black"/>
<path d="M325.962 7.90117C325.024 7.90117 324.22 7.58301 323.55 6.94669C322.881 6.31038 322.546 5.5401 322.546 4.63586C322.546 3.73162 322.881 2.96134 323.55 2.32502C324.22 1.65522 325.024 1.32031 325.962 1.32031C326.866 1.32031 327.653 1.65522 328.323 2.32502C328.993 2.96134 329.327 3.73162 329.327 4.63586C329.327 5.5401 328.993 6.31038 328.323 6.94669C327.653 7.58301 326.866 7.90117 325.962 7.90117ZM325.962 16.3407C325.024 16.3407 324.22 16.0226 323.55 15.3863C322.881 14.7165 322.546 13.9294 322.546 13.0252C322.546 12.121 322.881 11.3507 323.55 10.7144C324.22 10.078 325.024 9.75989 325.962 9.75989C326.866 9.75989 327.653 10.078 328.323 10.7144C328.993 11.3507 329.327 12.121 329.327 13.0252C329.327 13.9294 328.993 14.7165 328.323 15.3863C327.653 16.0226 326.866 16.3407 325.962 16.3407ZM308.731 7.90117C307.793 7.90117 306.989 7.58301 306.32 6.94669C305.683 6.31038 305.365 5.5401 305.365 4.63586C305.365 3.73162 305.683 2.96134 306.32 2.32502C306.989 1.65522 307.793 1.32031 308.731 1.32031C309.669 1.32031 310.456 1.65522 311.092 2.32502C311.762 2.96134 312.097 3.73162 312.097 4.63586C312.097 5.5401 311.762 6.31038 311.092 6.94669C310.456 7.58301 309.669 7.90117 308.731 7.90117ZM325.962 24.7301C325.024 24.7301 324.22 24.4119 323.55 23.7756C322.881 23.1393 322.546 22.3523 322.546 21.4145C322.546 20.5103 322.881 19.74 323.55 19.1037C324.22 18.4674 325.024 18.1492 325.962 18.1492C326.866 18.1492 327.653 18.4674 328.323 19.1037C328.993 19.74 329.327 20.5103 329.327 21.4145C329.327 22.3523 328.993 23.1393 328.323 23.7756C327.653 24.4119 326.866 24.7301 325.962 24.7301ZM308.731 16.3407C307.793 16.3407 306.989 16.0226 306.32 15.3863C305.683 14.7165 305.365 13.9294 305.365 13.0252C305.365 12.121 305.683 11.3507 306.32 10.7144C306.989 10.078 307.793 9.75989 308.731 9.75989C309.669 9.75989 310.456 10.078 311.092 10.7144C311.762 11.3507 312.097 12.121 312.097 13.0252C312.097 13.9294 311.762 14.7165 311.092 15.3863C310.456 16.0226 309.669 16.3407 308.731 16.3407ZM325.962 33.1194C325.024 33.1194 324.22 32.8013 323.55 32.1649C322.881 31.5286 322.546 30.7584 322.546 29.8541C322.546 28.9164 322.881 28.1294 323.55 27.493C324.22 26.8567 325.024 26.5386 325.962 26.5386C326.866 26.5386 327.653 26.8567 328.323 27.493C328.993 28.1294 329.327 28.9164 329.327 29.8541C329.327 30.7584 328.993 31.5286 328.323 32.1649C327.653 32.8013 326.866 33.1194 325.962 33.1194ZM308.731 24.7301C307.793 24.7301 306.989 24.4119 306.32 23.7756C305.683 23.1393 305.365 22.3523 305.365 21.4145C305.365 20.5103 305.683 19.74 306.32 19.1037C306.989 18.4674 307.793 18.1492 308.731 18.1492C309.669 18.1492 310.456 18.4674 311.092 19.1037C311.762 19.74 312.097 20.5103 312.097 21.4145C312.097 22.3523 311.762 23.1393 311.092 23.7756C310.456 24.4119 309.669 24.7301 308.731 24.7301ZM300.09 16.3407C299.153 16.3407 298.349 16.0226 297.679 15.3863C297.043 14.7165 296.725 13.9294 296.725 13.0252C296.725 12.121 297.043 11.3507 297.679 10.7144C298.349 10.078 299.153 9.75989 300.09 9.75989C301.028 9.75989 301.815 10.078 302.451 10.7144C303.121 11.3507 303.456 12.121 303.456 13.0252C303.456 13.9294 303.121 14.7165 302.451 15.3863C301.815 16.0226 301.028 16.3407 300.09 16.3407ZM308.731 33.1194C307.793 33.1194 306.989 32.8013 306.32 32.1649C305.683 31.5286 305.365 30.7584 305.365 29.8541C305.365 28.9164 305.683 28.1294 306.32 27.493C306.989 26.8567 307.793 26.5386 308.731 26.5386C309.669 26.5386 310.456 26.8567 311.092 27.493C311.762 28.1294 312.097 28.9164 312.097 29.8541C312.097 30.7584 311.762 31.5286 311.092 32.1649C310.456 32.8013 309.669 33.1194 308.731 33.1194ZM317.321 41.5088C316.383 41.5088 315.58 41.1906 314.91 40.5543C314.274 39.918 313.955 39.1477 313.955 38.2435C313.955 37.3392 314.274 36.5689 314.91 35.9326C315.58 35.2628 316.383 34.9279 317.321 34.9279C318.259 34.9279 319.046 35.2628 319.682 35.9326C320.352 36.5689 320.687 37.3392 320.687 38.2435C320.687 39.1477 320.352 39.918 319.682 40.5543C319.046 41.1906 318.259 41.5088 317.321 41.5088ZM300.09 24.7301C299.153 24.7301 298.349 24.4119 297.679 23.7756C297.043 23.1393 296.725 22.3523 296.725 21.4145C296.725 20.5103 297.043 19.74 297.679 19.1037C298.349 18.4674 299.153 18.1492 300.09 18.1492C301.028 18.1492 301.815 18.4674 302.451 19.1037C303.121 19.74 303.456 20.5103 303.456 21.4145C303.456 22.3523 303.121 23.1393 302.451 23.7756C301.815 24.4119 301.028 24.7301 300.09 24.7301ZM308.731 41.5088C307.793 41.5088 306.989 41.1906 306.32 40.5543C305.683 39.918 305.365 39.1477 305.365 38.2435C305.365 37.3392 305.683 36.5689 306.32 35.9326C306.989 35.2628 307.793 34.9279 308.731 34.9279C309.669 34.9279 310.456 35.2628 311.092 35.9326C311.762 36.5689 312.097 37.3392 312.097 38.2435C312.097 39.1477 311.762 39.918 311.092 40.5543C310.456 41.1906 309.669 41.5088 308.731 41.5088ZM300.09 33.1194C299.153 33.1194 298.349 32.8013 297.679 32.1649C297.043 31.5286 296.725 30.7584 296.725 29.8541C296.725 28.9164 297.043 28.1294 297.679 27.493C298.349 26.8567 299.153 26.5386 300.09 26.5386C301.028 26.5386 301.815 26.8567 302.451 27.493C303.121 28.1294 303.456 28.9164 303.456 29.8541C303.456 30.7584 303.121 31.5286 302.451 32.1649C301.815 32.8013 301.028 33.1194 300.09 33.1194ZM300.09 41.5088C299.153 41.5088 298.349 41.1906 297.679 40.5543C297.043 39.918 296.725 39.1477 296.725 38.2435C296.725 37.3392 297.043 36.5689 297.679 35.9326C298.349 35.2628 299.153 34.9279 300.09 34.9279C301.028 34.9279 301.815 35.2628 302.451 35.9326C303.121 36.5689 303.456 37.3392 303.456 38.2435C303.456 39.1477 303.121 39.918 302.451 40.5543C301.815 41.1906 301.028 41.5088 300.09 41.5088Z" fill="black"/>
<path d="M291.818 7.90117C290.913 7.90117 290.126 7.58301 289.457 6.94669C288.787 6.31038 288.452 5.5401 288.452 4.63586C288.452 3.73162 288.787 2.96134 289.457 2.32502C290.126 1.65522 290.913 1.32031 291.818 1.32031C292.755 1.32031 293.559 1.65522 294.229 2.32502C294.899 2.96134 295.234 3.73162 295.234 4.63586C295.234 5.5401 294.899 6.31038 294.229 6.94669C293.559 7.58301 292.755 7.90117 291.818 7.90117ZM283.227 7.90117C282.29 7.90117 281.486 7.58301 280.816 6.94669C280.18 6.31038 279.862 5.5401 279.862 4.63586C279.862 3.73162 280.18 2.96134 280.816 2.32502C281.486 1.65522 282.29 1.32031 283.227 1.32031C284.165 1.32031 284.952 1.65522 285.589 2.32502C286.258 2.96134 286.593 3.73162 286.593 4.63586C286.593 5.5401 286.258 6.31038 285.589 6.94669C284.952 7.58301 284.165 7.90117 283.227 7.90117ZM274.637 7.90117C273.699 7.90117 272.896 7.58301 272.226 6.94669C271.556 6.31038 271.221 5.5401 271.221 4.63586C271.221 3.73162 271.556 2.96134 272.226 2.32502C272.896 1.65522 273.699 1.32031 274.637 1.32031C275.541 1.32031 276.328 1.65522 276.998 2.32502C277.668 2.96134 278.003 3.73162 278.003 4.63586C278.003 5.5401 277.668 6.31038 276.998 6.94669C276.328 7.58301 275.541 7.90117 274.637 7.90117ZM283.227 24.7301C282.29 24.7301 281.486 24.4119 280.816 23.7756C280.18 23.1393 279.862 22.3523 279.862 21.4145C279.862 20.5103 280.18 19.74 280.816 19.1037C281.486 18.4674 282.29 18.1492 283.227 18.1492C284.165 18.1492 284.952 18.4674 285.589 19.1037C286.258 19.74 286.593 20.5103 286.593 21.4145C286.593 22.3523 286.258 23.1393 285.589 23.7756C284.952 24.4119 284.165 24.7301 283.227 24.7301ZM274.637 16.3407C273.699 16.3407 272.896 16.0226 272.226 15.3863C271.556 14.7165 271.221 13.9294 271.221 13.0252C271.221 12.121 271.556 11.3507 272.226 10.7144C272.896 10.078 273.699 9.75989 274.637 9.75989C275.541 9.75989 276.328 10.078 276.998 10.7144C277.668 11.3507 278.003 12.121 278.003 13.0252C278.003 13.9294 277.668 14.7165 276.998 15.3863C276.328 16.0226 275.541 16.3407 274.637 16.3407ZM265.997 16.3407C265.059 16.3407 264.272 16.0226 263.636 15.3863C262.966 14.7165 262.631 13.9294 262.631 13.0252C262.631 12.121 262.966 11.3507 263.636 10.7144C264.272 10.078 265.059 9.75989 265.997 9.75989C266.934 9.75989 267.721 10.078 268.358 10.7144C269.028 11.3507 269.362 12.121 269.362 13.0252C269.362 13.9294 269.028 14.7165 268.358 15.3863C267.721 16.0226 266.934 16.3407 265.997 16.3407ZM274.637 24.7301C273.699 24.7301 272.896 24.4119 272.226 23.7756C271.556 23.1393 271.221 22.3523 271.221 21.4145C271.221 20.5103 271.556 19.74 272.226 19.1037C272.896 18.4674 273.699 18.1492 274.637 18.1492C275.541 18.1492 276.328 18.4674 276.998 19.1037C277.668 19.74 278.003 20.5103 278.003 21.4145C278.003 22.3523 277.668 23.1393 276.998 23.7756C276.328 24.4119 275.541 24.7301 274.637 24.7301ZM265.997 24.7301C265.059 24.7301 264.272 24.4119 263.636 23.7756C262.966 23.1393 262.631 22.3523 262.631 21.4145C262.631 20.5103 262.966 19.74 263.636 19.1037C264.272 18.4674 265.059 18.1492 265.997 18.1492C266.934 18.1492 267.721 18.4674 268.358 19.1037C269.028 19.74 269.362 20.5103 269.362 21.4145C269.362 22.3523 269.028 23.1393 268.358 23.7756C267.721 24.4119 266.934 24.7301 265.997 24.7301ZM274.637 33.1194C273.699 33.1194 272.896 32.8013 272.226 32.1649C271.556 31.5286 271.221 30.7584 271.221 29.8541C271.221 28.9164 271.556 28.1294 272.226 27.493C272.896 26.8567 273.699 26.5386 274.637 26.5386C275.541 26.5386 276.328 26.8567 276.998 27.493C277.668 28.1294 278.003 28.9164 278.003 29.8541C278.003 30.7584 277.668 31.5286 276.998 32.1649C276.328 32.8013 275.541 33.1194 274.637 33.1194ZM265.997 33.1194C265.059 33.1194 264.272 32.8013 263.636 32.1649C262.966 31.5286 262.631 30.7584 262.631 29.8541C262.631 28.9164 262.966 28.1294 263.636 27.493C264.272 26.8567 265.059 26.5386 265.997 26.5386C266.934 26.5386 267.721 26.8567 268.358 27.493C269.028 28.1294 269.362 28.9164 269.362 29.8541C269.362 30.7584 269.028 31.5286 268.358 32.1649C267.721 32.8013 266.934 33.1194 265.997 33.1194ZM274.637 41.5088C273.699 41.5088 272.896 41.1906 272.226 40.5543C271.556 39.918 271.221 39.1477 271.221 38.2435C271.221 37.3392 271.556 36.5689 272.226 35.9326C272.896 35.2628 273.699 34.9279 274.637 34.9279C275.541 34.9279 276.328 35.2628 276.998 35.9326C277.668 36.5689 278.003 37.3392 278.003 38.2435C278.003 39.1477 277.668 39.918 276.998 40.5543C276.328 41.1906 275.541 41.5088 274.637 41.5088ZM265.997 41.5088C265.059 41.5088 264.272 41.1906 263.636 40.5543C262.966 39.918 262.631 39.1477 262.631 38.2435C262.631 37.3392 262.966 36.5689 263.636 35.9326C264.272 35.2628 265.059 34.9279 265.997 34.9279C266.934 34.9279 267.721 35.2628 268.358 35.9326C269.028 36.5689 269.362 37.3392 269.362 38.2435C269.362 39.1477 269.028 39.918 268.358 40.5543C267.721 41.1906 266.934 41.5088 265.997 41.5088Z" fill="black"/>
<circle cx="266.068" cy="5.03442" r="3.30005" fill="black"/>
<circle cx="257.115" cy="5.03442" r="3.30005" fill="black"/>
<circle cx="239.2" cy="5.03442" r="3.30005" fill="black"/>
<circle cx="131.732" cy="5.03442" r="3.30005" fill="black"/>
<circle cx="131.732" cy="37.8625" r="3.30005" fill="black"/>
<circle cx="185.466" cy="5.03442" r="3.30005" fill="black"/>
<circle cx="113.822" cy="5.03442" r="3.30005" fill="black"/>
<circle cx="113.822" cy="37.8625" r="3.30005" fill="black"/>
<circle cx="167.556" cy="5.03442" r="3.30005" fill="black"/>
<circle cx="95.9114" cy="5.03442" r="3.30005" fill="black"/>
<circle cx="95.9114" cy="12.9583" r="3.30005" fill="black"/>
<circle cx="30.9075" cy="37.8625" r="3.30005" fill="black"/>
<circle cx="30.9075" cy="29.3723" r="3.30005" fill="black"/>
<circle cx="67.8684" cy="29.3723" r="3.30005" fill="black"/>
<circle cx="149.646" cy="5.03442" r="3.30005" fill="black"/>
<circle cx="78.0012" cy="5.03442" r="3.30005" fill="black"/>
<circle cx="78.0012" cy="12.9583" r="3.30005" fill="black"/>
<circle cx="12.9973" cy="37.8625" r="3.30005" fill="black"/>
<circle cx="12.9973" cy="29.3723" r="3.30005" fill="black"/>
<circle cx="49.9543" cy="29.3723" r="3.30005" fill="black"/>
<circle cx="248.157" cy="5.03442" r="3.30005" fill="black"/>
<circle cx="194.423" cy="5.03442" r="3.30005" fill="black"/>
<circle cx="122.779" cy="5.03442" r="3.30005" fill="black"/>
<circle cx="122.779" cy="37.8625" r="3.30005" fill="black"/>
<circle cx="122.779" cy="20.8821" r="3.30005" fill="black"/>
<circle cx="131.732" cy="20.8821" r="3.30005" fill="black"/>
<circle cx="131.732" cy="12.9583" r="3.30005" fill="black"/>
<circle cx="140.689" cy="20.8821" r="3.30005" fill="black"/>
<circle cx="176.513" cy="5.03442" r="3.30005" fill="black"/>
<circle cx="104.868" cy="5.03442" r="3.30005" fill="black"/>
<circle cx="104.868" cy="37.8625" r="3.30005" fill="black"/>
<circle cx="158.599" cy="5.03442" r="3.30005" fill="black"/>
<circle cx="86.9543" cy="5.03442" r="3.30005" fill="black"/>
<circle cx="86.9543" cy="12.9583" r="3.30005" fill="black"/>
<circle cx="21.9543" cy="37.8625" r="3.30005" fill="black"/>
<circle cx="21.9543" cy="29.3723" r="3.30005" fill="black"/>
<circle cx="58.9114" cy="29.3723" r="3.30005" fill="black"/>
<circle cx="140.689" cy="5.03442" r="3.30005" fill="black"/>
<circle cx="140.689" cy="37.8625" r="3.30005" fill="black"/>
<circle cx="149.646" cy="37.8625" r="3.30005" fill="black"/>
<circle cx="158.599" cy="37.8625" r="3.30005" fill="black"/>
<circle cx="69.0442" cy="5.03442" r="3.30005" fill="black"/>
<circle cx="69.0442" cy="12.9583" r="3.30005" fill="black"/>
<circle cx="4.04028" cy="37.8625" r="3.30005" fill="black"/>
<circle cx="4.04028" cy="29.3723" r="3.30005" fill="black"/>
<circle cx="41.0012" cy="29.3723" r="3.30005" fill="black"/>
<circle cx="60.0872" cy="5.03442" r="3.30005" fill="black"/>
<circle cx="60.0872" cy="12.9583" r="3.30005" fill="black"/>
<circle cx="4.04175" cy="5.03589" r="3.30005" transform="rotate(180 4.04175 5.03589)" fill="black"/>
<circle cx="51.134" cy="5.03442" r="3.30005" fill="black"/>
<circle cx="257.115" cy="13.1477" r="3.30005" fill="black"/>
<circle cx="239.2" cy="13.1477" r="3.30005" fill="black"/>
<circle cx="221.29" cy="13.1477" r="3.30005" fill="black"/>
<circle cx="203.38" cy="13.1477" r="3.30005" fill="black"/>
<circle cx="185.466" cy="13.1477" r="3.30005" fill="black"/>
<circle cx="248.157" cy="13.1477" r="3.30005" fill="black"/>
<circle cx="230.247" cy="13.1477" r="3.30005" fill="black"/>
<circle cx="212.333" cy="13.1477" r="3.30005" fill="black"/>
<circle cx="194.423" cy="13.1477" r="3.30005" fill="black"/>
<circle cx="176.513" cy="13.1477" r="3.30005" fill="black"/>
<circle cx="257.115" cy="29.3723" r="3.30005" fill="black"/>
<circle cx="239.2" cy="29.3723" r="3.30005" fill="black"/>
<circle cx="221.29" cy="29.3723" r="3.30005" fill="black"/>
<circle cx="248.157" cy="29.3723" r="3.30005" fill="black"/>
<circle cx="230.247" cy="29.3723" r="3.30005" fill="black"/>
<circle cx="212.333" cy="29.3723" r="3.30005" fill="black"/>
<circle cx="257.115" cy="37.8625" r="3.30005" fill="black"/>
<circle cx="239.2" cy="37.8625" r="3.30005" fill="black"/>
<circle cx="248.157" cy="37.8625" r="3.30005" fill="black"/>
<circle cx="230.247" cy="37.8625" r="3.30005" fill="black"/>
<circle cx="558.956" cy="38.4381" r="3.41741" transform="rotate(180 558.956 38.4381)" fill="black"/>
<circle cx="568.233" cy="38.4381" r="3.41741" transform="rotate(180 568.233 38.4381)" fill="black"/>
<circle cx="586.78" cy="38.4381" r="3.41741" transform="rotate(180 586.78 38.4381)" fill="black"/>
<circle cx="698.069" cy="38.4381" r="3.41741" transform="rotate(180 698.069 38.4381)" fill="black"/>
<circle cx="698.069" cy="13.2349" r="3.41741" transform="rotate(180 698.069 13.2349)" fill="black"/>
<circle cx="688.795" cy="13.2349" r="3.41741" transform="rotate(180 688.795 13.2349)" fill="black"/>
<circle cx="679.522" cy="13.2349" r="3.41741" transform="rotate(180 679.522 13.2349)" fill="black"/>
<circle cx="642.424" cy="38.4381" r="3.41741" transform="rotate(180 642.424 38.4381)" fill="black"/>
<circle cx="716.62" cy="38.4381" r="3.41741" transform="rotate(180 716.62 38.4381)" fill="black"/>
<circle cx="716.62" cy="13.2349" r="3.41741" transform="rotate(180 716.62 13.2349)" fill="black"/>
<circle cx="660.971" cy="38.4381" r="3.41741" transform="rotate(180 660.971 38.4381)" fill="black"/>
<circle cx="735.167" cy="38.4381" r="3.41741" transform="rotate(180 735.167 38.4381)" fill="black"/>
<circle cx="735.167" cy="30.231" r="3.41741" transform="rotate(180 735.167 30.231)" fill="black"/>
<circle cx="781.534" cy="30.231" r="3.41741" transform="rotate(180 781.534 30.231)" fill="black"/>
<circle cx="679.522" cy="38.4381" r="3.41741" transform="rotate(180 679.522 38.4381)" fill="black"/>
<circle cx="753.713" cy="38.4381" r="3.41741" transform="rotate(180 753.713 38.4381)" fill="black"/>
<circle cx="753.713" cy="30.231" r="3.41741" transform="rotate(180 753.713 30.231)" fill="black"/>
<circle cx="800.085" cy="30.231" r="3.41741" transform="rotate(180 800.085 30.231)" fill="black"/>
<circle cx="577.51" cy="38.4381" r="3.41741" transform="rotate(180 577.51 38.4381)" fill="black"/>
<circle cx="707.346" cy="38.4381" r="3.41741" transform="rotate(180 707.346 38.4381)" fill="black"/>
<circle cx="707.346" cy="13.2349" r="3.41741" transform="rotate(180 707.346 13.2349)" fill="black"/>
<circle cx="698.069" cy="30.231" r="3.41741" transform="rotate(180 698.069 30.231)" fill="black"/>
<circle cx="651.698" cy="38.4381" r="3.41741" transform="rotate(180 651.698 38.4381)" fill="black"/>
<circle cx="725.893" cy="38.4381" r="3.41741" transform="rotate(180 725.893 38.4381)" fill="black"/>
<circle cx="725.893" cy="4.44392" r="3.41741" transform="rotate(180 725.893 4.44392)" fill="black"/>
<circle cx="670.249" cy="38.4381" r="3.41741" transform="rotate(180 670.249 38.4381)" fill="black"/>
<circle cx="744.44" cy="38.4381" r="3.41741" transform="rotate(180 744.44 38.4381)" fill="black"/>
<circle cx="744.44" cy="30.231" r="3.41741" transform="rotate(180 744.44 30.231)" fill="black"/>
<circle cx="790.811" cy="30.231" r="3.41741" transform="rotate(180 790.811 30.231)" fill="black"/>
<circle cx="688.795" cy="38.4381" r="3.41741" transform="rotate(180 688.795 38.4381)" fill="black"/>
<circle cx="679.522" cy="4.44392" r="3.41741" transform="rotate(180 679.522 4.44392)" fill="black"/>
<circle cx="670.249" cy="4.44392" r="3.41741" transform="rotate(180 670.249 4.44392)" fill="black"/>
<circle cx="762.987" cy="38.4381" r="3.41741" transform="rotate(180 762.987 38.4381)" fill="black"/>
<circle cx="762.987" cy="30.231" r="3.41741" transform="rotate(180 762.987 30.231)" fill="black"/>
<circle cx="809.362" cy="30.231" r="3.41741" transform="rotate(180 809.362 30.231)" fill="black"/>
<circle cx="809.362" cy="39.4381" r="3.41741" transform="rotate(180 809.362 39.4381)" fill="black"/>
<circle cx="827.905" cy="30.231" r="3.41741" transform="rotate(180 827.905 30.231)" fill="black"/>
<circle cx="827.905" cy="4.44392" r="3.41741" transform="rotate(180 827.905 4.44392)" fill="black"/>
<circle cx="827.905" cy="39.4381" r="3.41741" transform="rotate(180 827.905 39.4381)" fill="black"/>
<circle cx="772.26" cy="38.4381" r="3.41741" transform="rotate(180 772.26 38.4381)" fill="black"/>
<circle cx="772.26" cy="30.231" r="3.41741" transform="rotate(180 772.26 30.231)" fill="black"/>
<circle cx="818.631" cy="30.231" r="3.41741" transform="rotate(180 818.631 30.231)" fill="black"/>
<circle cx="818.631" cy="4.44392" r="3.41741" transform="rotate(180 818.631 4.44392)" fill="black"/>
<circle cx="818.631" cy="39.4381" r="3.41741" transform="rotate(180 818.631 39.4381)" fill="black"/>
<circle cx="781.534" cy="38.4381" r="3.41741" transform="rotate(180 781.534 38.4381)" fill="black"/>
<circle cx="568.233" cy="30.0377" r="3.41741" transform="rotate(180 568.233 30.0377)" fill="black"/>
<circle cx="586.78" cy="30.0377" r="3.41741" transform="rotate(180 586.78 30.0377)" fill="black"/>
<circle cx="605.331" cy="30.0377" r="3.41741" transform="rotate(180 605.331 30.0377)" fill="black"/>
<circle cx="623.878" cy="30.0377" r="3.41741" transform="rotate(180 623.878 30.0377)" fill="black"/>
<circle cx="642.424" cy="30.0377" r="3.41741" transform="rotate(180 642.424 30.0377)" fill="black"/>
<circle cx="577.51" cy="30.0377" r="3.41741" transform="rotate(180 577.51 30.0377)" fill="black"/>
<circle cx="596.057" cy="30.0377" r="3.41741" transform="rotate(180 596.057 30.0377)" fill="black"/>
<circle cx="614.604" cy="30.0377" r="3.41741" transform="rotate(180 614.604 30.0377)" fill="black"/>
<circle cx="633.151" cy="30.0377" r="3.41741" transform="rotate(180 633.151 30.0377)" fill="black"/>
<circle cx="651.698" cy="30.0377" r="3.41741" transform="rotate(180 651.698 30.0377)" fill="black"/>
<circle cx="568.233" cy="21.6353" r="3.41741" transform="rotate(180 568.233 21.6353)" fill="black"/>
<circle cx="577.51" cy="21.6373" r="3.41741" transform="rotate(180 577.51 21.6373)" fill="black"/>
<circle cx="642.424" cy="21.6373" r="3.41741" transform="rotate(180 642.424 21.6373)" fill="black"/>
<circle cx="651.698" cy="21.6373" r="3.41741" transform="rotate(180 651.698 21.6373)" fill="black"/>
<circle cx="660.975" cy="21.6373" r="3.41741" transform="rotate(180 660.975 21.6373)" fill="black"/>
<circle cx="568.233" cy="13.2349" r="3.41741" transform="rotate(180 568.233 13.2349)" fill="black"/>
<circle cx="586.78" cy="13.2349" r="3.41741" transform="rotate(180 586.78 13.2349)" fill="black"/>
<circle cx="605.331" cy="13.2349" r="3.41741" transform="rotate(180 605.331 13.2349)" fill="black"/>
<circle cx="577.51" cy="13.2349" r="3.41741" transform="rotate(180 577.51 13.2349)" fill="black"/>
<circle cx="596.057" cy="13.2349" r="3.41741" transform="rotate(180 596.057 13.2349)" fill="black"/>
<circle cx="614.604" cy="13.2349" r="3.41741" transform="rotate(180 614.604 13.2349)" fill="black"/>
<circle cx="568.233" cy="4.44392" r="3.41741" transform="rotate(180 568.233 4.44392)" fill="black"/>
<circle cx="586.78" cy="4.44392" r="3.41741" transform="rotate(180 586.78 4.44392)" fill="black"/>
<circle cx="577.51" cy="4.44392" r="3.41741" transform="rotate(180 577.51 4.44392)" fill="black"/>
<circle cx="596.057" cy="4.44392" r="3.41741" transform="rotate(180 596.057 4.44392)" fill="black"/>
</svg>
