<svg width="71" height="34" viewBox="0 0 71 34" fill="none" xmlns="http://www.w3.org/2000/svg">
<g clip-path="url(#clip0_849_219)">
<path d="M17.3059 32.1314C25.9037 32.1314 32.8736 25.1615 32.8736 16.5637C32.8736 7.96596 25.9037 0.996094 17.3059 0.996094C8.70815 0.996094 1.73828 7.96596 1.73828 16.5637C1.73828 25.1615 8.70815 32.1314 17.3059 32.1314Z" stroke="black" stroke-width="1.4" stroke-linecap="round" stroke-linejoin="round"/>
<path d="M1.73828 16.5625H32.8736" stroke="black" stroke-width="1.4" stroke-linecap="round" stroke-linejoin="round"/>
<path d="M17.3025 32.1314C21.4521 32.1314 24.816 25.1615 24.816 16.5637C24.816 7.96596 21.4521 0.996094 17.3025 0.996094C13.1529 0.996094 9.78906 7.96596 9.78906 16.5637C9.78906 25.1615 13.1529 32.1314 17.3025 32.1314Z" stroke="black" stroke-width="1.4" stroke-linecap="round" stroke-linejoin="round"/>
<path d="M6.29688 5.77539C9.11407 8.20371 13.006 9.70566 17.3048 9.70566C21.6038 9.70566 25.4957 8.20371 28.3129 5.77539" stroke="black" stroke-width="1.4" stroke-linecap="round" stroke-linejoin="round"/>
<path d="M28.3129 27.3503C25.4957 24.87 21.6038 23.3359 17.3048 23.3359C13.006 23.3359 9.11407 24.87 6.29688 27.3503" stroke="black" stroke-width="1.4" stroke-linecap="round" stroke-linejoin="round"/>
<path d="M17.2617 32.2204V0.855469" stroke="black" stroke-width="1.4"/>
</g>
<path d="M41.7864 27.1656C42.0649 27.1656 42.3552 27.1538 42.6534 27.1381C43.5556 26.5506 44.4932 26.0414 45.4621 25.6262C45.5837 25.9944 45.7132 26.3469 45.8505 26.6955C46.2781 26.6054 46.7135 26.5036 47.1607 26.3861C46.9999 25.9905 46.8508 25.5753 46.7096 25.1484C48.365 24.5804 50.0989 24.2592 51.872 24.1965V24.7332C52.9704 24.2514 54.0845 23.6952 55.2025 23.0646C54.5356 22.9706 53.8609 22.9118 53.1822 22.8883V17.2166H59.6196C59.596 18.282 59.5176 19.32 59.3921 20.3227C59.8746 19.9584 60.3531 19.5824 60.8278 19.1907C60.8788 18.5444 60.9102 17.8903 60.922 17.2205H63.0285C63.4718 16.7858 63.8955 16.351 64.2877 15.9162H60.922C60.871 13.3232 60.5336 10.8986 59.9609 8.76392C61.3495 8.1803 62.6794 7.43217 63.9308 6.52345C65.2331 7.99621 66.2531 9.72356 66.9082 11.6154L68.1125 11.0984C65.8451 4.67467 59.7137 0.0605469 52.5193 0.0605469C43.4066 0.0605469 35.9885 7.46351 35.9885 16.5625C35.9885 20.5186 37.3889 24.1495 39.7191 26.9971C40.3389 27.1068 41.0293 27.1656 41.7825 27.1656H41.7864ZM63.0128 5.57164C61.9262 6.34719 60.7768 6.98956 59.5803 7.50267C58.7958 5.11336 57.7013 3.17057 56.3989 1.87016C58.9174 2.53212 61.1809 3.82861 63.0128 5.57164ZM53.1744 1.43538C55.2849 1.87016 57.16 4.38481 58.3368 7.98445C56.6814 8.55241 54.9475 8.87359 53.1744 8.93626V1.43538ZM53.1744 10.2406C55.0769 10.1779 56.9324 9.83715 58.7056 9.23787C59.2351 11.2433 59.5607 13.5151 59.6117 15.9123H53.1744V10.2406ZM51.8681 22.8844C49.9694 22.947 48.11 23.2878 46.3369 23.8871C45.8073 21.8816 45.4817 19.6098 45.4307 17.2127H51.8681V22.8844ZM51.8681 15.9084H45.4307C45.4817 13.5112 45.8034 11.2394 46.3369 9.23395C48.11 9.83715 49.9694 10.174 51.8681 10.2367V15.9084ZM51.8681 1.43147V8.93235C50.095 8.86968 48.3611 8.54849 46.7056 7.98054C47.8825 4.3809 49.7576 1.86624 51.8681 1.43147ZM48.6396 1.86233C47.3372 3.16274 46.2467 5.10553 45.4582 7.49484C44.2617 6.98173 43.1123 6.33935 42.0257 5.5638C43.8577 3.82078 46.1211 2.52428 48.6396 1.86233ZM41.1117 6.5117C42.3631 7.42042 43.6929 8.17247 45.0816 8.75217C44.5089 10.8869 44.1715 13.3075 44.1205 15.9044H37.3144C37.4674 12.3126 38.8757 9.0381 41.1117 6.5117ZM44.1244 17.2088C44.1754 19.8018 44.5128 22.2263 45.0855 24.3611C43.6968 24.9447 42.367 25.6928 41.1156 26.6015C38.8796 24.0751 37.4713 20.8006 37.3183 17.2088H44.1284H44.1244ZM68.5087 18.7481L68.8304 19.2142C67.5515 27.0559 60.7258 33.0605 52.5193 33.0605C49.8321 33.0605 47.298 32.4142 45.0541 31.2744C45.8073 31.1686 46.5801 31.0276 47.3725 30.8514C47.7883 31.0002 48.2081 31.1412 48.6396 31.2548C48.4591 31.0746 48.2865 30.8827 48.1179 30.679C48.5886 30.5615 49.0633 30.4323 49.5418 30.2913C50.2636 31.0276 51.0482 31.5172 51.8681 31.6857V29.5392C52.3035 29.3825 52.7389 29.2141 53.1744 29.0418V31.6857C54.9004 31.3292 56.4695 29.5823 57.6268 26.9893C58.2505 26.6603 58.8625 26.3156 59.4627 25.9631C58.6859 28.1918 57.6385 30.0132 56.4029 31.2509C58.9213 30.5889 61.1848 29.2924 63.0167 27.5494C62.0086 26.8326 60.9455 26.2294 59.8393 25.7359C60.2825 25.4695 60.7219 25.1954 61.1534 24.9133C62.1145 25.3951 63.0403 25.9552 63.9308 26.6015C65.5783 24.7371 66.7748 22.4653 67.3554 19.9624C67.7594 19.5628 68.1439 19.1594 68.5126 18.7481H68.5087ZM70.7408 11.5449L70.1955 18.6267L68.6185 16.3549C59.7608 27.6943 38.1539 34.8074 34.2978 26.3273C33.3367 24.2631 33.8976 21.8425 34.9764 19.6882C35.0156 19.6098 35.1176 19.5942 35.1294 19.6647C35.1961 20.0525 35.2785 20.4559 35.3805 20.8633C35.3922 20.9103 35.3805 21.0983 35.3648 21.1453C31.34 31.8149 50.499 31.0786 63.7032 18.5993C64.8487 17.5065 65.9157 16.3431 66.8454 15.0936L64.1818 14.3651L70.7408 11.5567V11.5449Z" fill="black"/>
<defs>
<clipPath id="clip0_849_219">
<rect width="33" height="33" fill="white" transform="translate(0.804688 0.0605469)"/>
</clipPath>
</defs>
</svg>
