<svg width="69" height="34" viewBox="0 0 69 34" fill="none" xmlns="http://www.w3.org/2000/svg">
<rect x="1.44023" y="0.760547" width="31.6" height="31.6" rx="15.8" stroke="black" stroke-width="1.4"/>
<path d="M16.668 27.5605V22.4455C16.0951 23.3035 14.9492 24.3595 12.6919 25.1515C12.6919 25.1515 13.2648 23.2705 14.8805 22.0055C13.3909 22.3135 11.1451 22.2695 8.07422 20.9605C8.07422 20.9605 10.9044 19.4095 14.1242 19.8275C12.3023 18.7605 10.0221 16.6485 8.26901 12.2815C8.26901 12.2815 13.4253 13.6345 15.9919 17.8145C13.6659 12.4245 17.2409 5.56055 17.2409 5.56055C20.0253 11.5775 19.4294 15.5705 18.5242 17.7705C21.1023 13.6235 26.2128 12.2815 26.2128 12.2815C24.4596 16.6485 22.1794 18.7605 20.3576 19.8275C23.5773 19.4095 26.4076 20.9605 26.4076 20.9605C23.3367 22.2695 21.0909 22.3135 19.6013 22.0055C21.2169 23.2705 21.7898 25.1515 21.7898 25.1515C19.5326 24.3595 18.3867 23.3035 17.8138 22.4455V27.5605H16.668Z" fill="black"/>
<rect x="36.4402" y="0.760547" width="31.6" height="31.6" rx="15.8" stroke="black" stroke-width="1.4"/>
<path d="M48.2616 26.1428C46.9323 25.1128 46.0762 23.5011 46.0762 21.6885C46.0762 21.0642 46.1777 20.4637 46.3656 19.9028C46.9492 18.1545 48.3673 16.7878 50.1466 16.2755C50.6421 16.1331 51.1667 16.0566 51.7083 16.0566C52.2498 16.0566 52.7744 16.1331 53.2699 16.2755C54.0624 16.5043 54.7831 16.9011 55.3906 17.4269" stroke="black" stroke-width="0.817005" stroke-linecap="round" stroke-linejoin="round"/>
<path d="M56.9132 19.5332C57.0363 19.8302 57.135 20.1401 57.2062 20.4605C57.2943 20.8549 57.3404 21.2657 57.3404 21.6877C57.3404 23.5002 56.4843 25.112 55.1543 26.142" stroke="black" stroke-width="0.817005" stroke-linecap="round" stroke-linejoin="round"/>
<path d="M60.5943 13.4297L55.3887 17.4267" stroke="black" stroke-width="0.817005" stroke-linecap="round" stroke-linejoin="round"/>
<path d="M63.7178 15.3725L62.6914 16.1459L60.0957 12.7813L61.1221 12.0078L63.7178 15.3725Z" stroke="black" stroke-width="0.817005" stroke-linecap="round" stroke-linejoin="round"/>
<path d="M50.1465 16.2761V7.14844" stroke="black" stroke-width="0.817005" stroke-linecap="round" stroke-linejoin="round"/>
<path d="M53.2715 16.2761V7.14844" stroke="black" stroke-width="0.817005" stroke-linecap="round" stroke-linejoin="round"/>
<path d="M54.0124 5.56055H49.4043V7.14769H54.0124V5.56055Z" stroke="black" stroke-width="0.817005" stroke-linecap="round" stroke-linejoin="round"/>
<path d="M55.7007 27.5608H47.6621L48.1742 26.1426H55.1886L55.7007 27.5608Z" stroke="black" stroke-width="0.817005" stroke-linecap="round" stroke-linejoin="round"/>
<path d="M46.1621 20.6914C48.9055 20.7025 48.9247 21.5084 51.7061 21.5084C54.4875 21.5084 54.5067 20.7025 57.2495 20.6914H57.2501" stroke="black" stroke-width="0.817005" stroke-linecap="round" stroke-linejoin="round"/>
<path d="M62.0909 15.7695L56.9863 19.5345" stroke="black" stroke-width="0.817005" stroke-linecap="round" stroke-linejoin="round"/>
</svg>
