<svg width="885" height="241" viewBox="0 0 885 241" fill="none" xmlns="http://www.w3.org/2000/svg">
<path d="M766.124 168.701C785.476 168.701 793.514 161.661 793.514 115.261C793.514 69.5005 785.476 63.4205 766.422 63.4205C761.361 63.4205 756.002 63.7406 750.941 63.7406C750.345 81.6605 750.345 100.221 750.345 119.101C750.345 139.581 750.345 155.261 750.643 168.381C755.704 168.701 760.765 168.701 766.124 168.701ZM659.84 0.0605469H778.033C851.568 0.0605469 884.615 18.9405 884.615 110.461C884.615 215.741 856.034 240.061 776.842 240.061H659.84C660.435 206.141 660.733 171.261 660.733 120.381C660.733 69.5005 660.435 32.7006 659.84 0.0605469Z" fill="black"/>
<path d="M555.922 0.0605469H634.816C633.923 20.8605 633.625 68.8605 633.625 119.741C633.625 173.181 633.625 209.661 634.221 240.061H541.036C533.593 220.541 519.005 191.741 505.905 166.141C499.356 149.821 494.295 133.501 490.127 116.861L489.233 117.181C490.722 137.341 491.317 155.261 491.913 174.141C492.508 207.421 492.508 230.141 493.104 240.061H412.721C413.018 207.421 413.316 171.261 413.316 120.061C413.316 69.1805 413.614 33.0206 412.721 0.0605469H512.753C516.623 13.5006 535.082 52.5405 546.99 81.9805C551.456 94.1405 555.624 107.901 559.196 122.301H560.09C558.899 105.021 558.303 89.3406 558.006 76.2206C557.708 48.0606 556.815 17.9806 555.922 0.0605469Z" fill="black"/>
<path d="M272.189 142.461H288.564C285.884 120.701 282.609 97.9805 279.335 77.8205C276.357 64.7005 274.273 49.0206 272.487 36.8605H270.999C269.212 49.0206 266.831 64.3806 264.151 78.1405C260.876 98.3005 257.899 120.701 255.22 142.461H272.189ZM399.016 240.061H296.9C296.602 230.781 295.709 215.421 294.22 196.861H272.189H249.265C247.479 215.101 246.586 230.461 246.288 240.061H153.104C167.096 179.581 193.593 31.4206 198.058 0.0605469H351.382C357.038 32.0606 384.13 179.261 399.016 240.061Z" fill="black"/>
<path d="M96.6044 120.381V150.781C112.383 150.461 131.437 150.141 149.598 149.501C149.598 164.861 149.3 179.901 149.3 194.621C149.3 209.981 149.598 225.021 149.598 240.061H0.740234C1.03795 221.181 1.93109 171.261 1.93109 120.061C1.93109 67.2606 1.93109 23.1006 0.740234 0.0605469H97.7953C97.1998 17.3406 96.9021 68.5406 96.6044 120.381Z" fill="black"/>
</svg>
