<svg width="91" height="24" viewBox="0 0 91 24" fill="none" xmlns="http://www.w3.org/2000/svg">
<path d="M8.49024 7.60938L14.7046 18.0102H2.27583L8.49024 7.60938Z" fill="black"/>
<path d="M18.8076 12.9297L13.7104 4.52435L23.9048 4.52435L18.8076 12.9297Z" fill="black"/>
<path d="M30.1399 12.4798C30.1399 11.5496 30.3496 10.7307 30.7688 10.0232C31.2012 9.31566 31.7842 8.76538 32.5179 8.37232C33.2517 7.96615 34.0836 7.76307 35.0139 7.76307C35.9441 7.76307 36.7696 7.96615 37.4902 8.37232C38.2239 8.76538 38.8069 9.31566 39.2393 10.0232C39.6716 10.7307 39.8878 11.5496 39.8878 12.4798C39.8878 13.3969 39.6716 14.2158 39.2393 14.9364C38.8069 15.6439 38.2239 16.2008 37.4902 16.6069C36.7696 17 35.9441 17.1965 35.0139 17.1965C34.0836 17.1965 33.2517 17 32.5179 16.6069C31.7842 16.2008 31.2012 15.6439 30.7688 14.9364C30.3496 14.2158 30.1399 13.3969 30.1399 12.4798ZM32.3214 12.4798C32.3214 13.0432 32.4393 13.5411 32.6752 13.9734C32.911 14.3927 33.232 14.7268 33.6382 14.9757C34.0443 15.2116 34.5029 15.3295 35.0139 15.3295C35.5118 15.3295 35.9638 15.2116 36.3699 14.9757C36.7892 14.7268 37.1168 14.3927 37.3526 13.9734C37.5884 13.5411 37.7063 13.0432 37.7063 12.4798C37.7063 11.9164 37.5884 11.4185 37.3526 10.9862C37.1168 10.5538 36.7892 10.2197 36.3699 9.98387C35.9638 9.74803 35.5118 9.63011 35.0139 9.63011C34.5029 9.63011 34.0443 9.74803 33.6382 9.98387C33.232 10.2197 32.911 10.5538 32.6752 10.9862C32.4393 11.4185 32.3214 11.9164 32.3214 12.4798ZM42.3145 14.0324C42.6028 14.3468 42.891 14.622 43.1793 14.8578C43.4806 15.0806 43.7819 15.2509 44.0833 15.3688C44.3846 15.4736 44.686 15.526 44.9873 15.526C45.3673 15.526 45.6621 15.4409 45.8717 15.2705C46.0945 15.1002 46.2058 14.8644 46.2058 14.563C46.2058 14.301 46.1207 14.0782 45.9503 13.8948C45.78 13.6983 45.5442 13.5345 45.2428 13.4035C44.9415 13.2594 44.5877 13.1152 44.1816 12.9711C43.7754 12.8139 43.3692 12.6305 42.9631 12.4208C42.57 12.1981 42.2425 11.9099 41.9804 11.5561C41.7315 11.2024 41.607 10.7569 41.607 10.2197C41.607 9.66942 41.7446 9.21085 42.0197 8.84399C42.308 8.47713 42.6879 8.20854 43.1596 8.03821C43.6444 7.85479 44.1619 7.76307 44.7122 7.76307C45.2101 7.76307 45.6752 7.83513 46.1076 7.97926C46.553 8.12338 46.9526 8.31336 47.3064 8.54919C47.6601 8.78503 47.9615 9.05362 48.2104 9.35497L47.0313 10.6128C46.7299 10.259 46.3696 9.97076 45.9503 9.74803C45.5311 9.5253 45.0987 9.41393 44.6532 9.41393C44.3519 9.41393 44.1029 9.47944 43.9064 9.61046C43.7099 9.74148 43.6116 9.93146 43.6116 10.1804C43.6116 10.39 43.6968 10.58 43.8671 10.7503C44.0505 10.9076 44.2864 11.0517 44.5746 11.1827C44.876 11.3137 45.2101 11.4513 45.5769 11.5954C46.0748 11.7919 46.5334 12.0081 46.9526 12.244C47.3719 12.4798 47.706 12.768 47.9549 13.1087C48.217 13.4494 48.348 13.8948 48.348 14.4451C48.348 15.2967 48.0532 15.9846 47.4636 16.5087C46.8871 17.0197 46.101 17.2751 45.1053 17.2751C44.4895 17.2751 43.9195 17.1834 43.3954 17C42.8845 16.8035 42.4324 16.5545 42.0394 16.2532C41.6594 15.9387 41.3384 15.6112 41.0764 15.2705L42.3145 14.0324ZM56.0486 11.4971C56.0486 10.8289 55.911 10.3245 55.6359 9.98387C55.3608 9.64321 54.9349 9.47289 54.3585 9.47289C53.9654 9.47289 53.6182 9.55805 53.3168 9.72838C53.0155 9.8856 52.7797 10.1214 52.6093 10.4359C52.439 10.7372 52.3538 11.091 52.3538 11.4971V17H50.2313V7.9596H52.3538V9.35497C52.6421 8.81779 53.0089 8.41817 53.4544 8.15613C53.913 7.89409 54.4567 7.76307 55.0856 7.76307C56.1076 7.76307 56.8871 8.07752 57.4243 8.70642C57.9615 9.32221 58.2301 10.1738 58.2301 11.2613V17H56.0486V11.4971ZM60.2528 12.4798C60.2528 11.5496 60.4625 10.7307 60.8817 10.0232C61.3141 9.31566 61.8971 8.76538 62.6308 8.37232C63.3646 7.96615 64.1965 7.76307 65.1268 7.76307C66.057 7.76307 66.8825 7.96615 67.6031 8.37232C68.3368 8.76538 68.9198 9.31566 69.3522 10.0232C69.7846 10.7307 70.0007 11.5496 70.0007 12.4798C70.0007 13.3969 69.7846 14.2158 69.3522 14.9364C68.9198 15.6439 68.3368 16.2008 67.6031 16.6069C66.8825 17 66.057 17.1965 65.1268 17.1965C64.1965 17.1965 63.3646 17 62.6308 16.6069C61.8971 16.2008 61.3141 15.6439 60.8817 14.9364C60.4625 14.2158 60.2528 13.3969 60.2528 12.4798ZM62.4343 12.4798C62.4343 13.0432 62.5522 13.5411 62.7881 13.9734C63.0239 14.3927 63.3449 14.7268 63.7511 14.9757C64.1572 15.2116 64.6158 15.3295 65.1268 15.3295C65.6247 15.3295 66.0767 15.2116 66.4828 14.9757C66.9021 14.7268 67.2297 14.3927 67.4655 13.9734C67.7013 13.5411 67.8192 13.0432 67.8192 12.4798C67.8192 11.9164 67.7013 11.4185 67.4655 10.9862C67.2297 10.5538 66.9021 10.2197 66.4828 9.98387C66.0767 9.74803 65.6247 9.63011 65.1268 9.63011C64.6158 9.63011 64.1572 9.74803 63.7511 9.98387C63.3449 10.2197 63.0239 10.5538 62.7881 10.9862C62.5522 11.4185 62.4343 11.9164 62.4343 12.4798ZM70.3511 7.9596H72.6702L75.0285 13.7966L77.3869 7.9596H79.7256L75.0285 17.8254L70.3511 7.9596ZM80.0786 12.4798C80.0786 11.5496 80.2882 10.7307 80.7075 10.0232C81.1399 9.31566 81.7229 8.76538 82.4566 8.37232C83.1903 7.96615 84.0223 7.76307 84.9525 7.76307C85.8828 7.76307 86.7082 7.96615 87.4288 8.37232C88.1625 8.76538 88.7456 9.31566 89.178 10.0232C89.6103 10.7307 89.8265 11.5496 89.8265 12.4798C89.8265 13.3969 89.6103 14.2158 89.178 14.9364C88.7456 15.6439 88.1625 16.2008 87.4288 16.6069C86.7082 17 85.8828 17.1965 84.9525 17.1965C84.0223 17.1965 83.1903 17 82.4566 16.6069C81.7229 16.2008 81.1399 15.6439 80.7075 14.9364C80.2882 14.2158 80.0786 13.3969 80.0786 12.4798ZM82.2601 12.4798C82.2601 13.0432 82.378 13.5411 82.6138 13.9734C82.8497 14.3927 83.1707 14.7268 83.5768 14.9757C83.983 15.2116 84.4416 15.3295 84.9525 15.3295C85.4504 15.3295 85.9024 15.2116 86.3086 14.9757C86.7279 14.7268 87.0554 14.3927 87.2913 13.9734C87.5271 13.5411 87.645 13.0432 87.645 12.4798C87.645 11.9164 87.5271 11.4185 87.2913 10.9862C87.0554 10.5538 86.7279 10.2197 86.3086 9.98387C85.9024 9.74803 85.4504 9.63011 84.9525 9.63011C84.4416 9.63011 83.983 9.74803 83.5768 9.98387C83.1707 10.2197 82.8497 10.5538 82.6138 10.9862C82.378 11.4185 82.2601 11.9164 82.2601 12.4798Z" fill="black"/>
</svg>
