<svg width="933" height="241" viewBox="0 0 933 241" fill="none" xmlns="http://www.w3.org/2000/svg">
<path d="M850.094 81.3405V104.381V111.741C878.368 111.741 905.71 111.421 929.944 110.461C929.323 128.701 929.323 165.821 929.323 185.341C906.02 185.021 878.678 184.701 851.337 184.381C851.647 202.941 852.579 221.501 853.512 240.061H752.223C752.844 206.461 753.155 170.941 753.155 120.061C753.155 69.1805 753.155 33.6605 752.533 0.0605469H932.741C932.43 11.5805 931.808 28.8606 931.808 43.5806C931.808 57.0206 932.119 72.0605 932.43 81.9805C903.224 81.6605 874.639 81.3405 850.094 81.3405Z" fill="black"/>
<path d="M681.14 120.381V150.781C697.607 150.461 717.492 150.141 736.445 149.501C736.445 164.861 736.134 179.901 736.134 194.621C736.134 209.981 736.445 225.021 736.445 240.061H581.094C581.404 221.181 582.337 171.261 582.337 120.061C582.337 67.2606 582.337 23.1006 581.094 0.0605469H682.383C681.761 17.3406 681.451 68.5406 681.14 120.381Z" fill="black"/>
<path d="M568.419 114.802C568.419 204.183 532.685 240.059 447.102 240.059C361.82 240.059 327.887 204.183 327.887 114.802C327.887 26.6583 366.924 0.0605469 447.102 0.0605469C527.28 0.0605469 568.419 26.6583 568.419 114.802ZM447.402 167.998C464.519 167.998 472.326 155.008 472.326 114.493C472.326 76.4519 464.219 65.3179 447.402 65.3179C430.586 65.3179 422.178 76.1426 422.178 114.493C422.178 155.317 430.286 167.998 447.402 167.998Z" fill="black"/>
<path d="M263.321 0.0605469H334.472C322.354 58.6206 299.052 209.341 294.391 240.061C281.342 240.061 262.389 239.421 240.95 239.421C210.501 239.421 190.617 239.741 182.538 240.061C180.674 224.701 176.635 188.221 172.285 151.741C170.732 133.821 169.178 112.701 167.625 93.1805H165.45C163.896 113.341 162.032 134.781 159.857 152.381C155.196 187.581 150.225 223.741 148.361 240.061C136.865 240.061 115.427 239.421 93.3667 239.421C65.4035 239.421 48.9363 239.741 41.1688 240.061C35.2654 204.861 12.8949 58.3006 0.466797 0.0605469H98.338C98.9594 16.0605 103.62 76.8605 108.591 119.421C109.834 131.261 111.387 144.701 112.63 156.221H114.494C115.737 144.381 117.291 130.941 118.844 118.781C124.437 75.9006 131.272 19.9006 131.894 0.0605469C143.7 0.0605469 168.557 0.700558 182.228 0.700558C195.588 0.700558 218.89 0.0605469 230.386 0.0605469C231.318 17.6605 235.358 76.5405 240.64 119.421C242.504 132.221 244.057 145.661 245.3 156.861H246.854C247.786 145.341 249.339 131.901 251.203 119.421C256.485 75.9006 262.389 20.2206 263.321 0.0605469Z" fill="black"/>
</svg>
